<svg width="820" height="215" viewBox="0 0 820 215" fill="none" xmlns="http://www.w3.org/2000/svg">
<g id="banner">
<g id="text">
<path id="en 80 jours" d="M274.375 86.25V86.5C274.083 86.5833 273.938 86.7917 273.938 87.125C273.479 87.3333 273 87.5 272.5 87.625C272 87.7083 271.521 87.8542 271.062 88.0625C270.604 88.0208 270.125 88 269.625 88C269.167 87.9583 268.708 87.9375 268.25 87.9375C267 87.9375 265.75 87.9792 264.5 88.0625C263.25 88.1458 262 88.1458 260.75 88.0625C260.167 88.3958 259.521 88.6667 258.812 88.875C258.146 89.0417 257.5 89.125 256.875 89.125C256.375 89.125 255.938 89.0625 255.562 88.9375C254.562 89.4375 253.458 89.8542 252.25 90.1875C251.083 90.5208 249.896 90.8542 248.688 91.1875C247.479 91.4792 246.312 91.8333 245.188 92.25C244.104 92.625 243.146 93.1667 242.312 93.875C242.229 94.4583 242.167 95.0417 242.125 95.625C242.083 96.1667 242.062 96.7083 242.062 97.25C242.062 97.8333 242.083 98.375 242.125 98.875C242.208 99.375 242.354 99.875 242.562 100.375C242.771 100.458 243 100.521 243.25 100.562C243.542 100.604 243.792 100.625 244 100.625C244.208 100.625 244.417 100.604 244.625 100.562C244.833 100.479 244.979 100.333 245.062 100.125C245.688 100.042 246.312 100.021 246.938 100.062C247.562 100.062 248.188 100.062 248.812 100.062C249.438 100.062 250.042 100.042 250.625 100C251.25 99.9583 251.854 99.8542 252.438 99.6875C253.104 99.5208 253.75 99.4167 254.375 99.375C255.042 99.3333 255.688 99.2917 256.312 99.25C256.938 99.2083 257.583 99.1458 258.25 99.0625C258.917 98.9375 259.604 98.7083 260.312 98.375C260.854 98.5833 261.396 98.6875 261.938 98.6875C262.521 98.6875 263.083 98.7292 263.625 98.8125C263.917 99.0208 264.146 99.25 264.312 99.5C264.521 99.75 264.625 100.042 264.625 100.375C264.625 100.958 264.417 101.542 264 102.125C263.583 102.708 263.25 103.25 263 103.75H262.312C261.312 103.75 260.333 103.896 259.375 104.188C258.458 104.438 257.521 104.75 256.562 105.125C255.646 105.458 254.708 105.771 253.75 106.062C252.833 106.312 251.875 106.438 250.875 106.438C250.708 106.438 250.604 106.542 250.562 106.75C250.562 106.917 250.521 107.042 250.438 107.125C250.229 107.083 249.917 107.062 249.5 107.062C248.542 107.062 247.625 107.167 246.75 107.375C245.875 107.583 244.979 107.688 244.062 107.688C243.812 107.688 243.562 107.688 243.312 107.688C243.062 107.646 242.812 107.604 242.562 107.562C242.354 107.896 242.083 108.125 241.75 108.25C241.417 108.333 241.104 108.5 240.812 108.75C240.688 109.125 240.604 109.583 240.562 110.125C240.562 110.667 240.542 111.229 240.5 111.812C240.5 112.354 240.458 112.875 240.375 113.375C240.292 113.875 240.125 114.271 239.875 114.562C239.917 114.771 240.083 114.854 240.375 114.812C240.667 114.729 240.812 114.854 240.812 115.188C240.812 115.562 240.771 115.958 240.688 116.375C240.604 116.792 240.562 117.208 240.562 117.625C240.562 118.417 240.646 119.292 240.812 120.25C241.021 121.167 241.312 122.021 241.688 122.812C242.104 123.604 242.646 124.271 243.312 124.812C243.979 125.312 244.812 125.562 245.812 125.562C246.479 125.562 247.104 125.438 247.688 125.188C248.271 124.938 248.75 124.521 249.125 123.938L249.438 123.875C249.604 123.875 249.75 123.896 249.875 123.938C250.042 123.979 250.208 124 250.375 124C250.625 124 250.938 123.854 251.312 123.562C251.729 123.229 252.167 122.854 252.625 122.438C253.125 122.021 253.625 121.625 254.125 121.25C254.625 120.833 255.104 120.542 255.562 120.375C255.854 119.792 256.125 119.208 256.375 118.625C256.667 118.042 257.083 117.583 257.625 117.25V115.438C258.042 114.979 258.479 114.562 258.938 114.188C259.438 113.812 259.812 113.333 260.062 112.75C260.271 112.833 260.458 112.896 260.625 112.938C260.833 112.979 261.042 113 261.25 113C261.458 113 261.667 112.979 261.875 112.938C262.125 112.896 262.354 112.833 262.562 112.75C262.896 113.208 263.146 113.729 263.312 114.312C263.521 114.854 263.771 115.375 264.062 115.875C263.688 116.625 263.25 117.521 262.75 118.562C262.25 119.604 261.708 120.646 261.125 121.688C260.542 122.729 259.917 123.729 259.25 124.688C258.625 125.604 258 126.312 257.375 126.812C257.25 126.938 256.979 127.083 256.562 127.25C256.104 127.583 255.688 127.896 255.312 128.188C254.938 128.521 254.583 128.896 254.25 129.312C253.042 129.688 251.875 130.188 250.75 130.812C249.667 131.438 248.583 132.042 247.5 132.625C247 132.5 246.458 132.438 245.875 132.438C245.375 132.438 244.875 132.458 244.375 132.5C243.875 132.583 243.333 132.625 242.75 132.625C242.583 132.417 242.333 132.271 242 132.188C241.708 132.146 241.604 131.938 241.688 131.562C240.271 131.479 239.125 131.083 238.25 130.375C237.375 129.708 236.625 128.875 236 127.875C235.417 126.875 234.938 125.792 234.562 124.625C234.188 123.458 233.792 122.333 233.375 121.25V121.062C233.375 120.854 233.458 120.729 233.625 120.688C233.792 120.646 233.875 120.521 233.875 120.312C233.875 120.229 233.854 120.167 233.812 120.125C233.688 119.667 233.583 119.271 233.5 118.938C233.417 118.604 233.375 118.208 233.375 117.75C233.375 117.083 233.417 116.438 233.5 115.812C233.583 115.146 233.625 114.479 233.625 113.812C233.625 113.146 233.542 112.562 233.375 112.062C233.542 111.854 233.688 111.583 233.812 111.25C233.896 110.875 233.958 110.5 234 110.125C234.042 109.75 234.062 109.375 234.062 109C234.104 108.625 234.167 108.292 234.25 108C234.083 107.542 233.938 107.146 233.812 106.812C233.688 106.438 233.625 106 233.625 105.5V105.062C234.042 104.354 234.396 103.625 234.688 102.875C234.979 102.125 235.292 101.354 235.625 100.562V100.375C235.625 99.1667 235.583 97.9583 235.5 96.75C235.417 95.5417 235.375 94.3333 235.375 93.125V91.9375C235.375 91.5208 235.396 91.125 235.438 90.75C235.771 90.5833 236.021 90.3542 236.188 90.0625C236.354 89.7708 236.604 89.5417 236.938 89.375H239L239.375 88.75C239.5 88.5417 239.583 88.3125 239.625 88.0625C240.083 87.9375 240.521 87.7708 240.938 87.5625C241.396 87.3125 241.812 87.0625 242.188 86.8125C242.771 86.4792 243.292 86.1875 243.75 85.9375C244.25 85.6458 244.729 85.4167 245.188 85.25C245.688 85.0417 246.208 84.875 246.75 84.75C247.292 84.625 247.917 84.5208 248.625 84.4375C248.958 84.4375 249.167 84.375 249.25 84.25C249.375 84.125 249.542 83.9792 249.75 83.8125C250.25 83.8958 250.75 83.9792 251.25 84.0625C251.75 84.1042 252.25 84.125 252.75 84.125C253.75 84.125 254.688 83.9375 255.562 83.5625C256.812 83.5625 258.042 83.5417 259.25 83.5C260.5 83.4583 261.75 83.4375 263 83.4375C264.083 83.4375 265.167 83.4792 266.25 83.5625C267.333 83.6458 268.396 83.7917 269.438 84C269.812 83.875 270.229 83.8125 270.688 83.8125C271.188 83.8125 271.688 83.875 272.188 84C272.729 84.0833 273.25 84.0833 273.75 84C273.792 84.4583 273.896 84.8542 274.062 85.1875C274.271 85.4792 274.375 85.8333 274.375 86.25ZM312.5 84.9375C312.417 85.4375 312.292 85.875 312.125 86.25C312 86.5833 311.979 87.0417 312.062 87.625C311.646 87.6667 311.312 87.8125 311.062 88.0625C310.854 88.2708 310.667 88.5208 310.5 88.8125C310.375 89.1042 310.229 89.4167 310.062 89.75C309.938 90.0417 309.771 90.3125 309.562 90.5625C309.896 92.0625 310.083 93.5833 310.125 95.125C310.167 96.6667 310.271 98.1875 310.438 99.6875C310.646 101.604 310.958 103.5 311.375 105.375C311.833 107.208 312.062 109.083 312.062 111C312.062 111.583 312.042 112.125 312 112.625C312 113.125 312 113.646 312 114.188C312 114.521 312 114.875 312 115.25C312.042 115.583 312.062 115.917 312.062 116.25C312.062 117.458 311.896 118.667 311.562 119.875C311.271 121.083 311.042 122.292 310.875 123.5C310.375 123.958 309.938 124.458 309.562 125C309.229 125.542 308.875 126.042 308.5 126.5C308.125 126.958 307.688 127.354 307.188 127.688C306.688 128.062 306.062 128.312 305.312 128.438C305.188 128.854 304.938 129.167 304.562 129.375C304.229 129.583 303.938 129.875 303.688 130.25H303.562C302.521 130.25 301.625 130.104 300.875 129.812C300.125 129.521 299.417 129.188 298.75 128.812C298.125 128.438 297.479 128.042 296.812 127.625C296.146 127.208 295.375 126.875 294.5 126.625C293.333 125.667 292.271 124.625 291.312 123.5C290.354 122.333 289.271 121.292 288.062 120.375C287.771 119.542 287.375 118.854 286.875 118.312C286.417 117.771 285.958 117.146 285.5 116.438C285.292 116.146 285.125 115.875 285 115.625C284.917 115.375 284.792 115.083 284.625 114.75C284.5 114.417 284.292 114.188 284 114.062C283.75 113.938 283.521 113.792 283.312 113.625C282.979 112.333 282.5 111.146 281.875 110.062C281.25 108.979 280.521 107.938 279.688 106.938C279.438 107.396 279.229 107.896 279.062 108.438C278.938 108.938 278.812 109.458 278.688 110C278.562 110.5 278.396 111.021 278.188 111.562C278.021 112.062 277.792 112.521 277.5 112.938V113.125C277.5 113.333 277.583 113.458 277.75 113.5C277.917 113.542 278 113.667 278 113.875C278 113.917 277.979 113.958 277.938 114C277.938 114.042 277.938 114.083 277.938 114.125C277.729 114.292 277.562 114.5 277.438 114.75C277.354 115 277.146 115.146 276.812 115.188C276.854 115.396 276.875 115.604 276.875 115.812V116.375C276.875 117.583 276.729 118.792 276.438 120C276.188 121.208 276.062 122.438 276.062 123.688V124.5C276.062 124.792 276.083 125.062 276.125 125.312C276.208 125.562 276.333 125.812 276.5 126.062C276.667 126.312 276.75 126.542 276.75 126.75C276.75 127.042 276.625 127.312 276.375 127.562C276.667 127.771 277 128 277.375 128.25C277.75 128.5 278.083 128.771 278.375 129.062C278.708 129.396 278.979 129.729 279.188 130.062C279.396 130.438 279.5 130.833 279.5 131.25C279.5 131.958 279.271 132.458 278.812 132.75C278.354 133.042 277.792 133.271 277.125 133.438C276.5 133.604 275.833 133.75 275.125 133.875C274.458 134.042 273.896 134.312 273.438 134.688H273.25C272.75 134.688 272.375 134.542 272.125 134.25C271.875 133.958 271.5 133.812 271 133.812C270.208 132.521 269.667 131.062 269.375 129.438C269.083 127.854 268.938 126.333 268.938 124.875C268.938 123.083 269.104 121.292 269.438 119.5C269.729 117.708 270.104 115.938 270.562 114.188C270.979 112.438 271.438 110.708 271.938 109C272.479 107.25 272.979 105.5 273.438 103.75L273.5 103.562C273.5 103.354 273.438 103.208 273.312 103.125C273.229 103.042 273.188 102.917 273.188 102.75C273.188 102.667 273.208 102.625 273.25 102.625C273.375 102.208 273.5 101.812 273.625 101.438C273.792 101.062 273.917 100.646 274 100.188C274.25 99.0208 274.417 97.8333 274.5 96.625C274.625 95.375 274.688 94.1458 274.688 92.9375C274.729 91.7292 274.771 90.5208 274.812 89.3125C274.896 88.0625 275.042 86.8333 275.25 85.625C275.583 85.2917 275.896 84.9375 276.188 84.5625C276.479 84.1875 276.854 83.8542 277.312 83.5625C278.146 83.6042 278.979 83.7292 279.812 83.9375C280.646 84.1458 281.438 84.4792 282.188 84.9375C282.688 86.7292 283.021 88.5208 283.188 90.3125C283.396 92.1042 283.729 93.8958 284.188 95.6875V95.875C284.188 96.0833 284.292 96.1875 284.5 96.1875C284.75 96.1458 284.938 96.2083 285.062 96.375C284.979 96.5 284.917 96.6458 284.875 96.8125C284.875 96.9792 284.875 97.1458 284.875 97.3125V98.375C284.958 98.7083 285.062 99.0625 285.188 99.4375C285.312 99.8125 285.583 100.042 286 100.125C286.208 101.458 286.521 102.688 286.938 103.812C287.354 104.938 287.833 106.021 288.375 107.062C288.917 108.104 289.5 109.146 290.125 110.188C290.75 111.188 291.396 112.25 292.062 113.375C293.104 114.167 294 115.083 294.75 116.125C295.5 117.125 296.25 118.104 297 119.062C297.792 119.979 298.667 120.792 299.625 121.5C300.625 122.208 301.917 122.646 303.5 122.812C303.708 122.646 303.854 122.417 303.938 122.125L304.25 121.25C304.375 120.958 304.5 120.708 304.625 120.5C304.792 120.25 305.021 120.062 305.312 119.938C305.396 118.771 305.479 117.583 305.562 116.375C305.688 115.167 305.958 114.021 306.375 112.938C306.167 112.562 306.062 112.104 306.062 111.562C306.062 111.146 306.083 110.75 306.125 110.375C306.208 110 306.25 109.625 306.25 109.25C306.25 108.458 306.083 107.812 305.75 107.312C305.75 107.021 305.771 106.729 305.812 106.438C305.854 106.104 305.979 105.792 306.188 105.5C305.854 104.667 305.583 103.792 305.375 102.875C305.208 101.958 305.125 101.021 305.125 100.062C305.125 99.5208 305.188 98.9583 305.312 98.375C305.062 97.75 304.896 97.0208 304.812 96.1875L304.562 93.625C304.479 92.75 304.354 91.9375 304.188 91.1875C304.021 90.4375 303.708 89.8333 303.25 89.375C303.5 89 303.625 88.5625 303.625 88.0625C303.625 87.2292 303.5 86.4375 303.25 85.6875C303 84.9375 302.875 84.1458 302.875 83.3125C302.875 82.7292 303 82.1458 303.25 81.5625C304.167 81.6042 305.062 81.7083 305.938 81.875C306.854 82 307.75 82.0625 308.625 82.0625C308.875 82.3958 309.167 82.6667 309.5 82.875C309.833 83.0833 310.188 83.2917 310.562 83.5C310.938 83.6667 311.292 83.8542 311.625 84.0625C312 84.2708 312.292 84.5625 312.5 84.9375ZM395.438 64.5625C395.438 65.5625 395.167 66.5417 394.625 67.5C394.083 68.4583 393.271 69.0417 392.188 69.25C391.812 70.0833 391.333 70.8125 390.75 71.4375C390.208 72.0625 389.625 72.6667 389 73.25C388.417 73.8333 387.812 74.4375 387.188 75.0625C386.604 75.6458 386.104 76.3125 385.688 77.0625C385.271 77.1458 384.917 77.3333 384.625 77.625C384.375 77.9167 384.062 78.1042 383.688 78.1875C383.229 78.7708 382.771 79.3125 382.312 79.8125C381.854 80.2708 381.271 80.625 380.562 80.875C378.312 84 376.167 87.1875 374.125 90.4375C372.083 93.6458 370.042 96.875 368 100.125V100.5C368 100.958 367.917 101.333 367.75 101.625C367.583 101.917 367.438 102.25 367.312 102.625C367.729 103.167 368.208 103.625 368.75 104C369.333 104.375 369.917 104.75 370.5 105.125C371.083 105.458 371.646 105.833 372.188 106.25C372.729 106.667 373.188 107.167 373.562 107.75C374.021 107.792 374.396 107.917 374.688 108.125C374.979 108.333 375.354 108.438 375.812 108.438C375.979 108.896 376.208 109.271 376.5 109.562C376.833 109.854 377.188 110.125 377.562 110.375C377.938 110.625 378.312 110.854 378.688 111.062C379.104 111.271 379.479 111.521 379.812 111.812C380.062 112.438 380.396 113 380.812 113.5C381.229 114 381.729 114.417 382.312 114.75C382.479 115.25 382.667 115.729 382.875 116.188C383.125 116.646 383.354 117.104 383.562 117.562C383.812 117.979 384 118.417 384.125 118.875C384.292 119.333 384.375 119.854 384.375 120.438C384.375 121.104 384.292 121.75 384.125 122.375C383.333 123.333 382.625 124.375 382 125.5C381.417 126.625 380.771 127.729 380.062 128.812C378.729 129.604 377.396 130.375 376.062 131.125C374.729 131.917 373.458 132.792 372.25 133.75C371.5 133.792 370.812 133.938 370.188 134.188C369.604 134.479 369.021 134.875 368.438 135.375C367.062 135.667 365.688 135.958 364.312 136.25C362.979 136.583 361.604 136.75 360.188 136.75C358.854 136.75 357.812 136.625 357.062 136.375C356.312 136.125 355.646 135.792 355.062 135.375C354.479 134.958 353.896 134.479 353.312 133.938C352.729 133.438 351.938 132.917 350.938 132.375V132.188C350.938 131.979 350.979 131.812 351.062 131.688C351.146 131.604 351.188 131.479 351.188 131.312C351.188 131.062 351.042 130.667 350.75 130.125C350.458 129.625 350.229 129.271 350.062 129.062C349.938 128.271 349.875 127.438 349.875 126.562C349.875 124.354 350.146 122.354 350.688 120.562C351.271 118.729 351.979 116.979 352.812 115.312C353.646 113.604 354.521 111.917 355.438 110.25C356.354 108.583 357.167 106.792 357.875 104.875C357.417 104.125 356.792 103.542 356 103.125C355.25 102.708 354.479 102.396 353.688 102.188C353.354 101.271 352.854 100.562 352.188 100.062C351.562 99.5625 350.958 98.9792 350.375 98.3125C349.875 97.6042 349.562 96.9167 349.438 96.25C349.396 96.1667 349.375 96.125 349.375 96.125C349.417 96.0833 349.417 96.0208 349.375 95.9375C349.292 95.6875 349.146 95.6042 348.938 95.6875C348.729 95.7292 348.583 95.6458 348.5 95.4375C348.417 95.3125 348.333 94.9583 348.25 94.375C348.208 93.75 348.167 93.0833 348.125 92.375C348.083 91.625 348.042 90.9375 348 90.3125C348 89.6458 348 89.1875 348 88.9375C348.208 88.4375 348.417 87.8958 348.625 87.3125C348.833 86.7292 349.062 86.1667 349.312 85.625C349.562 85.0833 349.875 84.6042 350.25 84.1875C350.625 83.7292 351.083 83.375 351.625 83.125C351.625 82.6667 351.75 82.3125 352 82.0625C352.25 81.8125 352.354 81.4167 352.312 80.875C353.021 80.5833 353.646 80.2083 354.188 79.75C354.771 79.2917 355.354 78.8333 355.938 78.375C356.229 78.1667 356.521 78.0208 356.812 77.9375C357.104 77.8542 357.396 77.7083 357.688 77.5C357.896 77.3333 357.958 77.2083 357.875 77.125C357.833 77 357.917 76.8125 358.125 76.5625C358.75 76.6042 359.396 76.375 360.062 75.875C360.771 75.3333 361.333 74.8333 361.75 74.375H361.938C362.604 74.375 363.229 74.2083 363.812 73.875C364.396 73.5417 365.042 73.3958 365.75 73.4375C365.958 73.0208 366.271 72.7083 366.688 72.5C367.104 72.2917 367.542 72.1042 368 71.9375C368.5 71.7708 368.979 71.625 369.438 71.5C369.938 71.3333 370.354 71.0833 370.688 70.75C371.854 70.5833 373 70.3125 374.125 69.9375L377.562 68.8125C378.729 68.4375 379.875 68.0833 381 67.75C382.167 67.4167 383.354 67.1667 384.562 67C384.771 66.625 385.042 66.3333 385.375 66.125C385.708 65.875 386.042 65.625 386.375 65.375C386.792 65 387.146 64.5625 387.438 64.0625C387.771 63.5625 388.083 63.1042 388.375 62.6875C388.708 62.2292 389.083 61.8542 389.5 61.5625C389.917 61.2292 390.479 61.0625 391.188 61.0625C391.854 61.0625 392.438 61.25 392.938 61.625C393.438 62 393.792 62.5 394 63.125H394.125C394.583 63.125 394.917 62.9792 395.125 62.6875C395.333 63.3125 395.438 63.9375 395.438 64.5625ZM377.375 119.062V118.75C376.917 118.125 376.458 117.521 376 116.938C375.542 116.354 375.021 115.771 374.438 115.188C374.229 114.979 374.042 114.708 373.875 114.375C373.75 114.042 373.583 113.771 373.375 113.562C372.958 113.229 372.479 113.021 371.938 112.938C371.396 112.812 370.896 112.583 370.438 112.25C370.229 112.083 370.042 111.896 369.875 111.688C369.708 111.479 369.521 111.292 369.312 111.125C369.062 110.917 368.792 110.792 368.5 110.75C368.25 110.708 368 110.604 367.75 110.438C367.5 110.271 367.271 110.062 367.062 109.812C366.896 109.521 366.667 109.292 366.375 109.125C366.083 108.917 365.771 108.792 365.438 108.75C365.104 108.708 364.771 108.604 364.438 108.438H363.938C363.854 108.729 363.75 108.958 363.625 109.125C363.5 109.292 363.375 109.479 363.25 109.688C363.167 109.854 363.083 110.042 363 110.25C362.958 110.458 362.979 110.75 363.062 111.125C362.979 111.083 362.875 111.062 362.75 111.062C362.542 111.062 362.417 111.146 362.375 111.312C362.375 111.438 362.312 111.542 362.188 111.625C361.271 113.5 360.417 115.396 359.625 117.312C358.833 119.188 358.146 121.146 357.562 123.188C357.521 123.271 357.458 123.5 357.375 123.875C357.292 124.25 357.25 124.479 357.25 124.562C357.25 124.771 357.292 124.958 357.375 125.125C357.458 125.292 357.5 125.479 357.5 125.688C357.5 125.771 357.479 125.854 357.438 125.938C357.312 126.104 357.229 126.292 357.188 126.5C357.146 126.75 357.021 126.917 356.812 127C356.979 127.417 357.062 127.812 357.062 128.188C357.062 128.562 357.125 128.917 357.25 129.25C357.75 129.833 358.375 130.25 359.125 130.5C359.875 130.792 360.583 131.062 361.25 131.312C361.708 131.062 362.208 130.875 362.75 130.75C363.292 130.667 363.812 130.562 364.312 130.438C364.854 130.354 365.375 130.229 365.875 130.062C366.417 129.896 366.896 129.625 367.312 129.25H367.562C368.271 129.25 368.812 129.083 369.188 128.75C369.604 128.417 370.021 128 370.438 127.5C371.229 127.375 371.854 127.125 372.312 126.75C372.812 126.375 373.25 125.958 373.625 125.5C374.042 125 374.438 124.521 374.812 124.062C375.188 123.562 375.667 123.146 376.25 122.812C376.333 122.438 376.438 122.125 376.562 121.875C376.688 121.583 376.812 121.292 376.938 121C377.062 120.708 377.167 120.417 377.25 120.125C377.333 119.833 377.375 119.479 377.375 119.062ZM375.812 76.125C375.396 76.125 375.062 76.2292 374.812 76.4375C374.604 76.6458 374.333 76.7917 374 76.875C373.875 76.4583 373.625 76.25 373.25 76.25C372.917 76.25 372.542 76.3958 372.125 76.6875C371.708 76.9375 371.292 77.0625 370.875 77.0625C370.625 77.0625 370.417 77 370.25 76.875C369.625 77.5833 368.812 78.0625 367.812 78.3125C366.812 78.5208 365.896 78.6875 365.062 78.8125C364.438 79.8958 363.479 80.5833 362.188 80.875C362.188 80.75 362.167 80.6042 362.125 80.4375C362.125 80.2708 362.042 80.1875 361.875 80.1875H361.75V80.3125C361.75 80.5208 361.667 80.6667 361.5 80.75C361.375 80.8333 361.354 81.0208 361.438 81.3125C360.604 81.6875 359.854 82.1458 359.188 82.6875C358.562 83.2292 357.979 83.8333 357.438 84.5C356.938 85.1667 356.438 85.8542 355.938 86.5625C355.479 87.2708 355.021 87.9792 354.562 88.6875C354.562 88.8958 354.562 89.125 354.562 89.375C354.604 89.625 354.625 89.875 354.625 90.125C354.625 90.5417 354.521 90.9583 354.312 91.375C354.646 92.25 355 93.1042 355.375 93.9375C355.792 94.7292 356.271 95.4792 356.812 96.1875C357.354 96.8542 357.979 97.4375 358.688 97.9375C359.396 98.4375 360.25 98.8125 361.25 99.0625C361.25 98.9375 361.312 98.8542 361.438 98.8125C361.562 98.7708 361.667 98.7708 361.75 98.8125C362.5 97.2708 363.312 95.7292 364.188 94.1875C365.104 92.6042 366.229 91.2292 367.562 90.0625C368.062 89.0625 368.625 88.0833 369.25 87.125C369.917 86.1667 370.542 85.1875 371.125 84.1875C371.25 83.2708 371.521 82.5 371.938 81.875C372.354 81.25 372.812 80.6458 373.312 80.0625C373.812 79.4792 374.292 78.8958 374.75 78.3125C375.25 77.6875 375.604 76.9583 375.812 76.125ZM442.938 98.9375C442.938 101.562 442.688 104.125 442.188 106.625C441.729 109.083 441.167 111.562 440.5 114.062C440.042 114.521 439.688 115 439.438 115.5C439.188 115.958 439.083 116.521 439.125 117.188C438.625 117.312 438.292 117.625 438.125 118.125C437.958 118.583 437.771 119.021 437.562 119.438C436.854 119.896 436.229 120.438 435.688 121.062C435.188 121.646 434.646 122.229 434.062 122.812C433.896 122.979 433.729 123.167 433.562 123.375C433.438 123.583 433.292 123.75 433.125 123.875C432.75 124.167 432.333 124.438 431.875 124.688C431.417 124.896 431 125.125 430.625 125.375C429.792 125.917 428.979 126.479 428.188 127.062C427.396 127.688 426.625 128.354 425.875 129.062C424.083 129.771 422.354 130.562 420.688 131.438C419.062 132.354 417.438 133.354 415.812 134.438H414.25C413.708 134.771 413.208 135.042 412.75 135.25C412.292 135.458 411.75 135.562 411.125 135.562C410.292 136.104 409.375 136.542 408.375 136.875C407.375 137.25 406.354 137.583 405.312 137.875C404.271 138.167 403.229 138.438 402.188 138.688C401.146 138.938 400.167 139.229 399.25 139.562C399.042 139.521 398.833 139.458 398.625 139.375C398.458 139.333 398.271 139.312 398.062 139.312C397.479 139.312 396.938 139.438 396.438 139.688C395.979 139.938 395.479 140.125 394.938 140.25C394.771 140.333 394.583 140.354 394.375 140.312C394.167 140.312 393.979 140.312 393.812 140.312C392.729 140.312 391.75 140.125 390.875 139.75C390 139.417 389.062 139.146 388.062 138.938C387.812 138.396 387.458 137.875 387 137.375L385.625 135.875C385.167 135.375 384.771 134.854 384.438 134.312C384.062 133.812 383.833 133.25 383.75 132.625V132C383.75 131.542 383.708 131.083 383.625 130.625C383.542 130.167 383.438 129.708 383.312 129.25C383.604 128.5 383.896 127.708 384.188 126.875C384.479 126.042 384.792 125.229 385.125 124.438C385.458 123.604 385.833 122.812 386.25 122.062C386.667 121.312 387.188 120.667 387.812 120.125C388.021 119.208 388.354 118.375 388.812 117.625C389.229 116.833 389.708 116.083 390.25 115.375C390.75 114.625 391.25 113.875 391.75 113.125C392.25 112.375 392.667 111.562 393 110.688C393.208 110.729 393.333 110.688 393.375 110.562C393.458 110.438 393.521 110.312 393.562 110.188C393.646 110.021 393.729 109.896 393.812 109.812C393.896 109.729 394.062 109.729 394.312 109.812C394.312 109.396 394.396 109.062 394.562 108.812C394.729 108.521 394.896 108.25 395.062 108C395.271 107.75 395.438 107.5 395.562 107.25C395.729 106.958 395.833 106.625 395.875 106.25C396.167 106.125 396.396 105.938 396.562 105.688C396.771 105.438 396.958 105.188 397.125 104.938C397.292 104.646 397.458 104.375 397.625 104.125C397.792 103.875 398.042 103.688 398.375 103.562C398.458 103.021 398.604 102.562 398.812 102.188C399.062 101.771 399.312 101.396 399.562 101.062C399.854 100.729 400.125 100.396 400.375 100.062C400.667 99.6875 400.896 99.2708 401.062 98.8125C401.312 98.6042 401.604 98.5417 401.938 98.625C402.521 97.4583 403.208 96.3542 404 95.3125C404.792 94.2708 405.604 93.25 406.438 92.25C407.271 91.25 408.104 90.25 408.938 89.25C409.771 88.2083 410.5 87.125 411.125 86C411.708 85.6667 412.25 85.2708 412.75 84.8125C413.292 84.3125 413.729 83.75 414.062 83.125C413.229 81.5417 412.5 80.0208 411.875 78.5625C411.25 77.0625 410.938 75.375 410.938 73.5C410.938 73.2083 410.958 72.9167 411 72.625C411.042 72.3333 411.083 72.0208 411.125 71.6875C411.833 70.7292 412.521 69.9375 413.188 69.3125C413.854 68.6458 414.833 68.3125 416.125 68.3125C417.375 68.3125 418.583 68.5417 419.75 69C420.958 69.4583 422.188 69.6875 423.438 69.6875C424.062 70.1458 424.688 70.5625 425.312 70.9375C425.979 71.2708 426.667 71.6042 427.375 71.9375L428.188 72.25C428.521 72.3333 428.812 72.4375 429.062 72.5625C429.312 72.7292 429.562 72.9167 429.812 73.125C430.104 73.3333 430.375 73.5417 430.625 73.75C432.292 75.125 433.833 76.625 435.25 78.25C436.708 79.8333 438.146 81.4583 439.562 83.125V83.25C439.562 83.9167 439.708 84.4375 440 84.8125C440.292 85.1458 440.604 85.5417 440.938 86C440.938 86.75 441.042 87.4167 441.25 88C441.458 88.5833 441.729 89.1875 442.062 89.8125C442.062 90.3958 442.062 91 442.062 91.625C442.104 92.2083 442.208 92.7917 442.375 93.375C442.542 93.7917 442.646 94.1042 442.688 94.3125C442.854 94.8958 442.938 95.6458 442.938 96.5625V98.9375ZM437.875 98.875C437.875 97.6667 437.792 96.5625 437.625 95.5625C437.5 94.5208 437.333 93.4167 437.125 92.25C436.958 91.25 436.75 90.25 436.5 89.25C436.292 88.25 435.958 87.2917 435.5 86.375C435.083 85.4583 434.521 84.625 433.812 83.875C433.146 83.125 432.312 82.4792 431.312 81.9375H431.125C431 81.9375 430.854 82.0417 430.688 82.25C430.562 82.4167 430.271 82.5 429.812 82.5C429.562 82.5 429.312 82.4583 429.062 82.375C428.854 82.25 428.646 82.2083 428.438 82.25H428.188C427.688 82.5 427.25 82.6875 426.875 82.8125C426.5 82.9375 426.021 82.9583 425.438 82.875C424.812 83.4583 424.146 84 423.438 84.5C422.771 84.9583 422.021 85.3125 421.188 85.5625C420.812 86.3125 420.333 86.9792 419.75 87.5625C419.167 88.1042 418.458 88.4792 417.625 88.6875C417.458 89.1875 417.208 89.625 416.875 90C416.583 90.3333 416.25 90.6458 415.875 90.9375C415.5 91.1875 415.104 91.4375 414.688 91.6875C414.271 91.9375 413.896 92.2083 413.562 92.5C413.229 92.8333 412.958 93.1875 412.75 93.5625C412.583 93.8958 412.333 94.2083 412 94.5C411.542 94.9167 411.125 95.3125 410.75 95.6875C410.417 96.0625 410.083 96.5 409.75 97C409.458 97.4583 409.167 97.9167 408.875 98.375C408.625 98.8333 408.479 99.3542 408.438 99.9375C407.229 100.646 406.271 101.562 405.562 102.688L403.438 106.062C403.146 106.479 402.854 106.854 402.562 107.188L401.688 108.188C401.562 108.354 401.479 108.542 401.438 108.75C401.438 108.958 401.458 109.167 401.5 109.375C400.917 109.792 400.417 110.292 400 110.875C399.583 111.417 399.188 112 398.812 112.625C398.479 113.25 398.104 113.875 397.688 114.5C397.312 115.083 396.854 115.604 396.312 116.062C395.979 116.896 395.583 117.75 395.125 118.625C394.708 119.458 394.146 120.167 393.438 120.75C392.729 122.5 392.042 124.229 391.375 125.938C390.75 127.646 390.312 129.438 390.062 131.312C390.354 131.604 390.646 131.854 390.938 132.062C391.229 132.312 391.521 132.583 391.812 132.875C391.854 132.917 391.938 132.938 392.062 132.938C392.271 132.938 392.417 132.875 392.5 132.75C392.625 132.625 392.771 132.562 392.938 132.562C393.021 132.562 393.062 132.562 393.062 132.562L393.188 132.625C393.229 132.917 393.354 133.125 393.562 133.25C393.771 133.375 394.021 133.458 394.312 133.5C394.604 133.583 394.896 133.646 395.188 133.688C395.479 133.729 395.708 133.833 395.875 134C396.792 133.708 397.812 133.479 398.938 133.312C400.062 133.188 401.167 133.021 402.25 132.812C403.375 132.646 404.458 132.396 405.5 132.062C406.542 131.729 407.438 131.25 408.188 130.625H408.875C409.292 130.625 409.583 130.708 409.75 130.875C410.542 130.083 411.333 129.479 412.125 129.062C412.917 128.646 413.854 128.417 414.938 128.375C416.521 126.917 418.312 125.75 420.312 124.875C422.354 123.958 424.292 122.958 426.125 121.875C426.333 121.792 426.438 121.646 426.438 121.438C426.438 121.188 426.542 121.042 426.75 121C426.958 120.958 427.125 120.958 427.25 121C427.417 121 427.583 121 427.75 121C429.208 119.583 430.604 118.146 431.938 116.688C433.312 115.188 434.521 113.562 435.562 111.812C435.562 111.521 435.583 111.271 435.625 111.062C435.708 110.812 435.75 110.583 435.75 110.375C435.75 110.292 435.729 110.208 435.688 110.125C435.646 110 435.604 109.896 435.562 109.812C436.396 108.146 436.979 106.375 437.312 104.5C437.688 102.583 437.875 100.708 437.875 98.875ZM423.438 76.375C422.896 76 422.25 75.6667 421.5 75.375C420.75 75.0417 420.042 74.875 419.375 74.875C418.667 74.875 418.146 75.0833 417.812 75.5C417.521 75.875 417.375 76.3958 417.375 77.0625C417.375 77.4375 417.479 77.75 417.688 78C417.896 78.2083 417.938 78.625 417.812 79.25C417.938 79.3333 418.104 79.375 418.312 79.375C418.812 79.375 419.292 79.2708 419.75 79.0625C420.208 78.8542 420.625 78.6042 421 78.3125C421.417 77.9792 421.812 77.6458 422.188 77.3125C422.604 76.9375 423.021 76.625 423.438 76.375ZM517.125 83.5625C516.917 83.9375 516.812 84.3125 516.812 84.6875C516.812 85.0625 516.771 85.4375 516.688 85.8125C516.312 85.8542 515.938 85.9792 515.562 86.1875C515.188 86.3958 514.812 86.6042 514.438 86.8125C514.104 87.0208 513.75 87.2292 513.375 87.4375C513 87.6042 512.625 87.6875 512.25 87.6875C511.917 87.6875 511.604 87.5833 511.312 87.375C511.021 87.1667 510.771 86.9375 510.562 86.6875C509.812 86.9375 509 87.0833 508.125 87.125C507.25 87.125 506.354 87.1458 505.438 87.1875C504.562 87.1875 503.688 87.25 502.812 87.375C501.979 87.4583 501.208 87.6875 500.5 88.0625C500.625 88.4375 500.708 88.8333 500.75 89.25C500.833 89.625 500.917 90 501 90.375C501.125 90.75 501.271 91.1042 501.438 91.4375C501.646 91.7708 501.917 92.0625 502.25 92.3125C502.25 92.7708 502.292 93.1875 502.375 93.5625C502.458 93.9375 502.5 94.3333 502.5 94.75C503.208 96.3333 503.958 97.9375 504.75 99.5625C505.542 101.188 506.083 102.875 506.375 104.625C506.458 105.083 506.604 105.375 506.812 105.5C507.062 105.583 507.208 105.729 507.25 105.938V108C507.708 108.5 508.021 109.062 508.188 109.688C508.396 110.271 508.542 110.896 508.625 111.562C508.708 112.188 508.771 112.833 508.812 113.5C508.854 114.167 508.938 114.812 509.062 115.438C508.812 115.771 508.562 116.125 508.312 116.5C508.104 116.875 508 117.292 508 117.75C508 118.125 508.042 118.396 508.125 118.562C507.667 118.521 507.354 118.646 507.188 118.938C507.021 119.229 506.896 119.562 506.812 119.938C506.146 120.396 505.479 120.854 504.812 121.312C504.146 121.729 503.521 122.229 502.938 122.812C502.479 122.854 502.062 122.958 501.688 123.125C501.354 123.292 500.958 123.479 500.5 123.688C500.042 123.771 499.562 123.812 499.062 123.812H497.688C496.271 123.812 494.854 123.75 493.438 123.625C492.062 123.458 490.667 123.271 489.25 123.062C488.667 122.604 488 122.292 487.25 122.125C486.5 121.917 485.771 121.771 485.062 121.688C484.354 121.188 483.521 120.688 482.562 120.188C481.604 119.688 480.708 119.458 479.875 119.5C479.625 118.833 479.229 118.375 478.688 118.125C478.146 117.875 477.583 117.729 477 117.688C477.042 117.562 477.062 117.375 477.062 117.125C477.062 116.833 476.979 116.625 476.812 116.5C476.646 116.333 476.458 116.208 476.25 116.125C476.042 116 475.812 115.896 475.562 115.812C475.312 115.688 475.104 115.562 474.938 115.438C474.479 115.104 474.083 114.729 473.75 114.312C473.417 113.854 473.083 113.396 472.75 112.938C472.417 112.479 472.062 112.042 471.688 111.625C471.312 111.208 470.896 110.833 470.438 110.5C470.271 109.542 470.083 108.604 469.875 107.688C469.667 106.729 469.562 105.771 469.562 104.812C469.562 104.479 469.667 104.167 469.875 103.875C470.083 103.583 470.312 103.312 470.562 103.062C470.812 102.812 471.062 102.542 471.312 102.25C471.562 101.958 471.729 101.646 471.812 101.312C472.438 101.604 473.167 101.75 474 101.75C474.917 101.75 475.812 101.625 476.688 101.375C477.562 101.083 478.479 100.938 479.438 100.938C479.729 100.938 480 100.979 480.25 101.062C480.5 101.104 480.75 101.125 481 101.125C481.292 101.125 481.458 101.042 481.5 100.875C481.583 100.667 481.792 100.562 482.125 100.562C482.708 100.562 483.208 100.792 483.625 101.25C484.042 101.667 484.438 102.042 484.812 102.375C484.771 102.958 484.583 103.375 484.25 103.625C483.917 103.875 483.646 104.208 483.438 104.625C482.771 104.667 482.188 104.792 481.688 105C481.229 105.167 480.771 105.375 480.312 105.625C479.854 105.833 479.375 106.021 478.875 106.188C478.375 106.354 477.75 106.438 477 106.438C476.75 106.438 476.542 106.625 476.375 107C476.208 107.375 476.021 107.646 475.812 107.812C476.146 108.146 476.438 108.5 476.688 108.875C476.979 109.25 477.25 109.625 477.5 110C477.792 110.333 478.125 110.625 478.5 110.875C478.875 111.125 479.333 111.312 479.875 111.438C479.958 111.771 480.083 112.042 480.25 112.25C480.458 112.417 480.625 112.646 480.75 112.938C481.708 113.271 482.583 113.667 483.375 114.125C484.167 114.542 484.958 114.958 485.75 115.375C486.542 115.75 487.354 116.083 488.188 116.375C489.021 116.667 489.979 116.875 491.062 117C491.396 117.042 491.542 117.167 491.5 117.375C491.458 117.542 491.542 117.646 491.75 117.688C491.917 117.688 492.104 117.688 492.312 117.688C492.562 117.646 492.771 117.625 492.938 117.625C493.396 117.625 493.833 117.667 494.25 117.75C494.667 117.833 495.104 117.958 495.562 118.125C496.062 117.958 496.688 117.812 497.438 117.688C498.229 117.521 498.979 117.312 499.688 117.062C500.438 116.771 501.062 116.417 501.562 116C502.062 115.542 502.312 114.938 502.312 114.188C502.312 112.896 502.042 111.708 501.5 110.625C500.958 109.5 500.542 108.333 500.25 107.125C500.167 106.708 500.104 106.25 500.062 105.75C500.021 105.25 499.938 104.75 499.812 104.25C499.729 103.75 499.583 103.312 499.375 102.938C499.208 102.521 498.917 102.188 498.5 101.938C498.5 101.604 498.458 101.25 498.375 100.875C498.292 100.458 498.021 100.208 497.562 100.125C497.438 99.2083 497.188 98.3333 496.812 97.5C496.479 96.625 496.104 95.7708 495.688 94.9375C495.312 94.1042 494.958 93.25 494.625 92.375C494.292 91.5 494.083 90.5833 494 89.625C492.667 89.625 491.375 89.7708 490.125 90.0625C488.875 90.3542 487.625 90.7083 486.375 91.125C485.167 91.5 483.938 91.8958 482.688 92.3125C481.438 92.6875 480.188 93 478.938 93.25C478.188 92.9167 477.521 92.5208 476.938 92.0625C476.396 91.6042 475.667 91.3125 474.75 91.1875C474.875 90.6458 474.979 90.0417 475.062 89.375C475.146 88.7083 475.292 88.0625 475.5 87.4375C475.708 86.8125 476 86.2708 476.375 85.8125C476.75 85.3125 477.25 84.9583 477.875 84.75C478.542 84.875 479.292 84.9375 480.125 84.9375C481.375 84.9375 482.583 84.7708 483.75 84.4375C484.917 84.1042 486.104 83.75 487.312 83.375H487.812C489.021 83.375 490.333 83.2292 491.75 82.9375C493.167 82.6458 494.438 82.25 495.562 81.75C495.729 81.8333 495.792 81.9375 495.75 82.0625C495.75 82.1458 495.833 82.2083 496 82.25C496.458 81.8333 497.062 81.5833 497.812 81.5C498.562 81.4167 499.333 81.375 500.125 81.375C500.958 81.3333 501.75 81.2708 502.5 81.1875C503.25 81.1042 503.854 80.8542 504.312 80.4375C504.896 80.6458 505.5 80.7917 506.125 80.875C506.792 80.9167 507.458 80.9375 508.125 80.9375C508.958 80.9375 509.771 80.9167 510.562 80.875C511.396 80.7917 512.229 80.7292 513.062 80.6875C512.812 80.6042 512.688 80.5 512.688 80.375C512.688 80.2917 512.729 80.1667 512.812 80C513.354 80.125 513.833 80.3333 514.25 80.625C514.708 80.875 515.208 81.0417 515.75 81.125C515.625 81.3333 515.562 81.5625 515.562 81.8125C515.562 82.2708 515.75 82.625 516.125 82.875C516.5 83.0833 516.833 83.3125 517.125 83.5625ZM555.25 89.8125C555 90.1875 554.854 90.6042 554.812 91.0625C554.771 91.5208 554.75 91.9375 554.75 92.3125C554.75 92.8125 554.75 93.3125 554.75 93.8125C554.792 94.2708 554.812 94.7292 554.812 95.1875V96.125C554.729 96.4167 554.604 96.7083 554.438 97C554.271 97.2917 554.146 97.5833 554.062 97.875C553.479 99.4167 553.188 100.958 553.188 102.5V102.625C552.979 103.125 552.771 103.583 552.562 104C552.396 104.417 552.229 104.833 552.062 105.25C551.896 105.625 551.771 106.042 551.688 106.5C551.604 106.917 551.583 107.417 551.625 108C551.042 109.458 550.271 110.792 549.312 112C548.354 113.167 547.417 114.375 546.5 115.625C545.625 115.958 544.812 116.396 544.062 116.938C543.354 117.479 542.667 118.083 542 118.75C540.708 119.167 539.438 119.646 538.188 120.188C536.938 120.729 535.812 121.458 534.812 122.375C534.021 122.458 533.229 122.583 532.438 122.75C531.646 122.917 530.875 123.167 530.125 123.5H529.375C529 123.5 528.729 123.417 528.562 123.25C528.021 123.542 527.458 123.75 526.875 123.875C526.292 123.958 525.708 124 525.125 124C524.375 124 523.625 123.958 522.875 123.875C522.167 123.75 521.438 123.625 520.688 123.5C520.271 122.917 519.688 122.479 518.938 122.188C518.188 121.854 517.521 121.542 516.938 121.25C515.729 119.583 514.854 117.979 514.312 116.438C513.771 114.854 513.208 113.083 512.625 111.125C512.708 110.542 512.854 109.979 513.062 109.438C513.271 108.854 513.354 108.229 513.312 107.562C514.062 105.396 515.042 103.438 516.25 101.688C517.5 99.8958 518.917 98.1875 520.5 96.5625C520.5 96.3125 520.542 96.1042 520.625 95.9375C520.75 95.7708 520.771 95.5208 520.688 95.1875C520.729 95.2292 520.812 95.25 520.938 95.25C521.271 95.25 521.479 95.1667 521.562 95C521.646 94.7917 521.667 94.5625 521.625 94.3125C523.125 93.3542 524.479 92.25 525.688 91C526.938 89.75 528.354 88.7083 529.938 87.875C530.062 87.5 530.271 87.1875 530.562 86.9375C530.854 86.6875 531.083 86.3958 531.25 86.0625C532.583 85.6875 533.792 85.125 534.875 84.375C535.958 83.625 537.104 82.9583 538.312 82.375C538.979 82 539.604 81.75 540.188 81.625C540.812 81.4583 541.479 81.2917 542.188 81.125C542.438 81.0417 542.667 80.9792 542.875 80.9375C543.083 80.8958 543.312 80.875 543.562 80.875C544.312 80.875 545.042 81.0208 545.75 81.3125C546.458 81.5625 547.188 81.6875 547.938 81.6875C548.146 81.6875 548.312 81.6875 548.438 81.6875C548.604 81.6458 548.771 81.6042 548.938 81.5625C549.646 82.4375 550.542 83.1042 551.625 83.5625C551.875 84.1875 552.167 84.7292 552.5 85.1875C552.875 85.6458 553.25 86.1042 553.625 86.5625C554 86.9792 554.333 87.4583 554.625 88C554.958 88.5 555.167 89.1042 555.25 89.8125ZM549 93.0625C549 92.8542 548.979 92.6667 548.938 92.5C548.521 92.375 548.125 92.2083 547.75 92C547.375 91.7917 546.958 91.6875 546.5 91.6875C546.208 91.6875 545.917 91.75 545.625 91.875C545.583 91.5833 545.458 91.375 545.25 91.25C545.083 91.125 544.875 91.0208 544.625 90.9375C544.417 90.8125 544.188 90.7292 543.938 90.6875C543.729 90.6042 543.542 90.4792 543.375 90.3125C543.25 89.9792 543.104 89.6458 542.938 89.3125C542.812 88.9375 542.562 88.6667 542.188 88.5C541.812 88.875 541.375 89.1875 540.875 89.4375C540.375 89.6458 539.854 89.8542 539.312 90.0625C538.812 90.2708 538.312 90.5208 537.812 90.8125C537.354 91.1042 536.958 91.4583 536.625 91.875H535.5C535.25 92.3333 534.896 92.6875 534.438 92.9375C533.979 93.1458 533.583 93.4583 533.25 93.875C532.583 94.2083 531.958 94.625 531.375 95.125C530.833 95.5833 530.292 96.0833 529.75 96.625C529.208 97.125 528.667 97.6458 528.125 98.1875C527.625 98.7292 527.083 99.2292 526.5 99.6875C525.958 100.854 525.354 101.875 524.688 102.75C524.062 103.583 523.458 104.438 522.875 105.312C522.333 106.188 521.854 107.146 521.438 108.188C521.062 109.188 520.875 110.438 520.875 111.938V112.562C520.875 112.771 520.896 112.979 520.938 113.188C521.479 113.771 521.917 114.396 522.25 115.062C522.625 115.729 523.229 116.208 524.062 116.5C524.896 116.833 525.771 116.979 526.688 116.938C527.646 116.896 528.562 117 529.438 117.25C531.438 116.875 533.354 116.271 535.188 115.438C537.062 114.562 538.833 113.521 540.5 112.312C540.75 112.104 541.042 111.896 541.375 111.688C541.708 111.438 541.979 111.188 542.188 110.938C542.396 110.729 542.562 110.5 542.688 110.25C542.854 110 543.021 109.771 543.188 109.562C543.521 109.021 543.896 108.479 544.312 107.938C544.729 107.396 545.167 106.896 545.625 106.438C545.833 105.521 546.104 104.646 546.438 103.812C546.771 102.938 547.104 102.083 547.438 101.25C547.771 100.417 548.042 99.5625 548.25 98.6875C548.5 97.8125 548.625 96.8958 548.625 95.9375C548.625 95.7292 548.604 95.5 548.562 95.25C548.562 95 548.542 94.7708 548.5 94.5625C548.833 94.1042 549 93.6042 549 93.0625ZM598.5 115.875C598.333 116.5 598.062 117.021 597.688 117.438C597.312 117.854 596.875 118.229 596.375 118.562C595.917 118.896 595.417 119.208 594.875 119.5C594.333 119.75 593.812 120.042 593.312 120.375H592.5C590.75 120.375 589.396 119.958 588.438 119.125C587.521 118.25 586.812 117.188 586.312 115.938C585.812 114.646 585.438 113.271 585.188 111.812C584.979 110.354 584.708 109.021 584.375 107.812C583.875 108.229 583.458 108.729 583.125 109.312C582.792 109.854 582.438 110.396 582.062 110.938C581.729 111.479 581.333 111.979 580.875 112.438C580.458 112.896 579.896 113.208 579.188 113.375C579.062 113.667 578.917 113.958 578.75 114.25C578.625 114.542 578.542 114.854 578.5 115.188C577.583 115.688 576.75 116.271 576 116.938C575.25 117.604 574.5 118.292 573.75 119C573 119.708 572.229 120.396 571.438 121.062C570.688 121.688 569.833 122.208 568.875 122.625C568.833 122.583 568.75 122.562 568.625 122.562C568.125 122.562 567.667 122.688 567.25 122.938C566.833 123.146 566.375 123.25 565.875 123.25C565.542 123.25 565.229 123.188 564.938 123.062C564.688 122.938 564.417 122.792 564.125 122.625C563.875 122.458 563.604 122.333 563.312 122.25C563.021 122.167 562.708 122.146 562.375 122.188C561.958 121.438 561.396 120.75 560.688 120.125C560.021 119.458 559.604 118.708 559.438 117.875C559.354 117.5 559.292 117.125 559.25 116.75C559.25 116.333 559.208 115.917 559.125 115.5C559 114.875 558.833 114.25 558.625 113.625C558.417 112.958 558.25 112.292 558.125 111.625C558.333 110.5 558.542 109.271 558.75 107.938C558.917 106.562 559.125 105.208 559.375 103.875C559.667 102.5 560.042 101.208 560.5 100C561 98.75 561.625 97.6875 562.375 96.8125L562.312 96.375C562.312 95.7083 562.438 95.0833 562.688 94.5C562.938 93.9167 563.208 93.3542 563.5 92.8125C563.792 92.2708 564.042 91.7292 564.25 91.1875C564.458 90.6458 564.5 90.0417 564.375 89.375C564.875 89.125 565.396 88.9167 565.938 88.75C566.479 88.5833 567.042 88.5 567.625 88.5C568.167 88.5 568.667 88.5833 569.125 88.75C569.042 89.0833 569.188 89.2917 569.562 89.375V89.5625C569.562 90.4375 569.458 91.2917 569.25 92.125C569.042 92.9583 568.792 93.7917 568.5 94.625C568.208 95.4167 567.917 96.2292 567.625 97.0625C567.375 97.8542 567.188 98.6667 567.062 99.5C566.896 99.5417 566.771 99.625 566.688 99.75C566.646 99.875 566.604 100 566.562 100.125C566.521 100.25 566.458 100.354 566.375 100.438C566.292 100.521 566.167 100.562 566 100.562C565.75 102.021 565.479 103.479 565.188 104.938C564.938 106.354 564.812 107.792 564.812 109.25C564.812 110.125 564.896 111.021 565.062 111.938C565.229 112.854 565.542 113.729 566 114.562L566.25 114.5C566.708 114.5 567.062 114.604 567.312 114.812C567.604 115.021 567.979 115.229 568.438 115.438C568.771 115.354 569.083 115.25 569.375 115.125C569.667 114.958 569.792 114.688 569.75 114.312C570.292 114.271 570.75 114.146 571.125 113.938C571.5 113.688 571.833 113.417 572.125 113.125L573.062 112.25C573.396 111.958 573.792 111.75 574.25 111.625C574.25 111.375 574.312 111.188 574.438 111.062L574.812 110.688C574.938 110.562 575.021 110.438 575.062 110.312C575.146 110.146 575.167 109.917 575.125 109.625C575.625 109.583 576 109.458 576.25 109.25C576.542 109.042 576.792 108.812 577 108.562C577.25 108.271 577.479 107.979 577.688 107.688C577.896 107.396 578.167 107.146 578.5 106.938C578.792 106.312 579.188 105.479 579.688 104.438C580.229 103.396 580.75 102.312 581.25 101.188C581.792 100.062 582.25 99 582.625 98C583.042 96.9583 583.25 96.1667 583.25 95.625C583.25 95.4167 583.188 95.2292 583.062 95.0625C582.979 94.8958 582.958 94.7083 583 94.5V94.3125C583.333 93.8958 583.625 93.4375 583.875 92.9375C584.167 92.4375 584.458 91.9583 584.75 91.5C585.083 91.0417 585.438 90.625 585.812 90.25C586.188 89.875 586.667 89.5833 587.25 89.375C587.917 89.5833 588.583 89.7292 589.25 89.8125C589.958 89.8958 590.625 90.0625 591.25 90.3125C591.292 91.3542 591.396 92.5625 591.562 93.9375C591.729 95.3125 592.021 96.4792 592.438 97.4375C592.438 97.9792 592.417 98.5 592.375 99C592.375 99.5 592.375 100 592.375 100.5C592.375 101.333 592.396 102.188 592.438 103.062C592.521 103.938 592.667 104.75 592.875 105.5C592.583 106.125 592.438 106.792 592.438 107.5C592.438 108.458 592.583 109.375 592.875 110.25C593.167 111.083 593.375 111.979 593.5 112.938C594.042 113.688 594.75 114.062 595.625 114.062C595.833 114.062 596 114.042 596.125 114C596.292 113.958 596.458 113.896 596.625 113.812C596.958 114.188 597.25 114.562 597.5 114.938C597.792 115.271 598.125 115.583 598.5 115.875ZM680.5 115.125C680.417 115.75 680.188 116.229 679.812 116.562C679.479 116.896 679.083 117.208 678.625 117.5C678.417 117.458 678.208 117.438 678 117.438C677.833 117.396 677.646 117.375 677.438 117.375C676.146 117.333 674.917 117.5 673.75 117.875C672.625 118.25 671.458 118.521 670.25 118.688C669.833 118.771 669.438 118.812 669.062 118.812C668.729 118.771 668.375 118.792 668 118.875C666.667 119.083 665.25 119.25 663.75 119.375C662.25 119.5 660.75 119.667 659.25 119.875C657.75 120.042 656.271 120.271 654.812 120.562C653.396 120.812 652.062 121.188 650.812 121.688C650.688 121.604 650.562 121.521 650.438 121.438C650.312 121.312 650.167 121.25 650 121.25C649.583 121.25 649.188 121.312 648.812 121.438C648.438 121.562 648.062 121.604 647.688 121.562C647.271 121.812 646.812 122 646.312 122.125C645.854 122.208 645.375 122.292 644.875 122.375C644.417 122.417 643.958 122.5 643.5 122.625C643.042 122.75 642.604 122.979 642.188 123.312C641.854 123.146 641.438 123.062 640.938 123.062C640.479 123.021 640.167 122.854 640 122.562C639.042 123.021 638.021 123.312 636.938 123.438C635.896 123.562 634.833 123.604 633.75 123.562C633.042 123.521 632.229 123.417 631.312 123.25C630.396 123.083 629.479 122.854 628.562 122.562C627.646 122.229 626.792 121.854 626 121.438C625.208 120.979 624.604 120.438 624.188 119.812C623.896 119.396 623.688 118.938 623.562 118.438C623.438 117.938 623.146 117.562 622.688 117.312C622.812 116.354 622.958 115.417 623.125 114.5C623.292 113.583 623.458 112.646 623.625 111.688C624.458 110.979 625.25 110.229 626 109.438C626.75 108.646 627.458 107.812 628.125 106.938C628.917 106.562 629.646 106.104 630.312 105.562C631.021 105.021 631.708 104.479 632.375 103.938C633.083 103.354 633.771 102.792 634.438 102.25C635.146 101.708 635.896 101.229 636.688 100.812C636.812 100.521 636.979 100.292 637.188 100.125C637.438 99.9167 637.688 99.7292 637.938 99.5625C638.188 99.3542 638.417 99.1458 638.625 98.9375C638.833 98.6875 638.979 98.3958 639.062 98.0625C640.521 97.1875 641.792 96.0833 642.875 94.75C643.958 93.4167 644.667 91.9167 645 90.25C644.292 89.6667 643.479 89.2917 642.562 89.125C641.688 88.9167 640.771 88.7708 639.812 88.6875C638.979 88.6458 638.104 88.6458 637.188 88.6875C636.312 88.7292 635.417 88.7083 634.5 88.625C633.583 88.9167 632.625 89.1042 631.625 89.1875C630.667 89.2708 629.708 89.3542 628.75 89.4375C627.792 89.4792 626.833 89.6042 625.875 89.8125C624.958 89.9792 624.062 90.3125 623.188 90.8125C623.021 90.8125 622.854 90.7917 622.688 90.75C622.562 90.7083 622.417 90.6875 622.25 90.6875C620.917 90.6458 619.667 90.9167 618.5 91.5C617.333 92.0417 616.188 92.5833 615.062 93.125C614.979 93.2917 614.938 93.4167 614.938 93.5C614.938 93.75 614.979 94 615.062 94.25C615.188 94.4583 615.25 94.6875 615.25 94.9375C615.208 94.9792 615.188 95.0208 615.188 95.0625C615.188 95.1042 615.167 95.1458 615.125 95.1875C615.083 95.3958 615.021 95.5833 614.938 95.75C614.896 95.9167 614.833 96.1042 614.75 96.3125C614.292 97.6458 614.042 98.9583 614 100.25C613.958 101.333 613.958 102.396 614 103.438C614.042 104.479 614.042 105.542 614 106.625C613.917 107.958 613.708 109.208 613.375 110.375C613.583 111.375 613.771 112.438 613.938 113.562C614.104 114.646 614.312 115.729 614.562 116.812C614.812 117.896 615.104 118.958 615.438 120C615.812 121 616.292 121.958 616.875 122.875C616.833 122.958 616.854 123.021 616.938 123.062C617.021 123.104 617.104 123.125 617.188 123.125H617.688C617.896 123.125 617.979 123.208 617.938 123.375C618.021 123.5 618.083 123.625 618.125 123.75C618.167 123.833 618.25 123.917 618.375 124C618.458 124.125 618.458 124.292 618.375 124.5C618.333 125.333 618.125 126.104 617.75 126.812C617.375 127.521 617.146 128.292 617.062 129.125C616.562 129.25 616.104 129.312 615.688 129.312C614.979 129.271 614.354 129.062 613.812 128.688C613.271 128.354 612.771 127.938 612.312 127.438C611.854 126.938 611.417 126.438 611 125.938C610.583 125.396 610.125 124.938 609.625 124.562C609.333 123.396 609.042 122.104 608.75 120.688C608.5 119.271 608.062 118.062 607.438 117.062C607.604 116.688 607.688 116.229 607.688 115.688C607.729 114.854 607.646 114.042 607.438 113.25C607.271 112.417 607.229 111.583 607.312 110.75C607.312 110.292 607.354 109.833 607.438 109.375C607.562 108.917 607.646 108.458 607.688 108C607.729 107.292 607.646 106.604 607.438 105.938C607.271 105.271 607.208 104.583 607.25 103.875C607.292 103.542 607.354 103.229 607.438 102.938C607.562 102.604 607.729 102.312 607.938 102.062C607.729 101.562 607.667 101.083 607.75 100.625C607.792 99.9167 607.875 99.25 608 98.625C608.125 98 608.208 97.375 608.25 96.75C608.25 96.4167 608.229 96.1042 608.188 95.8125C608.146 95.4792 608.083 95.1667 608 94.875L607.438 94.6875C607.188 94.6875 606.938 94.75 606.688 94.875C606.479 95 606.292 95.1458 606.125 95.3125C605.958 95.4792 605.812 95.625 605.688 95.75C605.562 95.8333 605.438 95.875 605.312 95.875C605.229 95.875 605.125 95.875 605 95.875C604.917 95.8333 604.833 95.8125 604.75 95.8125C604.667 95.8125 604.5 95.8958 604.25 96.0625C604.042 96.2292 603.771 96.4167 603.438 96.625C603.146 96.7917 602.854 96.9792 602.562 97.1875C602.271 97.3542 602.042 97.4583 601.875 97.5C601.417 97.4167 601.042 97.2708 600.75 97.0625C600.5 96.8125 600.25 96.5833 600 96.375C599.792 96.125 599.562 95.9167 599.312 95.75C599.062 95.5417 598.75 95.4583 598.375 95.5C598.25 95.25 598.188 94.9792 598.188 94.6875C598.146 94.3958 598.146 94.1042 598.188 93.8125V92.8125C598.479 92.2708 598.875 91.8333 599.375 91.5C599.833 91.125 600.333 90.8125 600.875 90.5625L602.5 89.8125C603.042 89.5625 603.542 89.25 604 88.875H604.562C605.312 88.9167 605.958 88.7708 606.5 88.4375C607.083 88.1042 607.625 87.7292 608.125 87.3125C608.625 86.8542 609.125 86.3958 609.625 85.9375C610.167 85.4792 610.75 85.125 611.375 84.875C611.833 85.0833 612.312 85.2708 612.812 85.4375C613.312 85.5625 613.833 85.6458 614.375 85.6875C614.917 85.6875 615.479 85.6042 616.062 85.4375C616.646 85.2708 617.104 84.9583 617.438 84.5C617.646 84.5833 617.812 84.6458 617.938 84.6875C618.104 84.6875 618.292 84.6875 618.5 84.6875C619.125 84.7292 619.75 84.6458 620.375 84.4375C621 84.1875 621.604 83.8958 622.188 83.5625C623.021 83.6042 623.833 83.5625 624.625 83.4375C625.458 83.2708 626.271 83.1042 627.062 82.9375C627.896 82.7708 628.708 82.625 629.5 82.5C630.333 82.3333 631.167 82.2708 632 82.3125C633.375 82.3542 634.729 82.2292 636.062 81.9375C637.396 81.6458 638.75 81.5417 640.125 81.625C641.083 81.6667 642.021 81.75 642.938 81.875C643.896 81.9583 644.854 81.9792 645.812 81.9375C646.354 82.1875 646.833 82.4167 647.25 82.625C647.708 82.7917 648.271 82.8333 648.938 82.75C650.271 83.875 651.479 85.1875 652.562 86.6875V87.75C652.521 88.7083 652.354 89.6458 652.062 90.5625C651.771 91.4792 651.417 92.3958 651 93.3125C650.625 94.1875 650.208 95.0625 649.75 95.9375C649.292 96.7708 648.854 97.6042 648.438 98.4375C645.729 100.896 643.021 103.333 640.312 105.75C637.604 108.167 634.812 110.5 631.938 112.75C631.854 113.167 631.729 113.542 631.562 113.875C631.438 114.208 631.354 114.562 631.312 114.938C631.312 115.146 631.333 115.312 631.375 115.438C631.667 115.521 631.917 115.688 632.125 115.938C632.375 116.146 632.458 116.438 632.375 116.812H632.938C633.146 116.812 633.25 116.896 633.25 117.062L634.25 117.125C635.833 117.208 637.417 117.167 639 117C640.583 116.833 642.167 116.646 643.75 116.438C645.375 116.229 646.979 116.042 648.562 115.875C650.146 115.667 651.729 115.542 653.312 115.5C653.688 115.375 654.083 115.271 654.5 115.188C654.917 115.104 655.292 114.938 655.625 114.688H655.812C656.104 114.688 656.312 114.771 656.438 114.938C656.604 115.104 656.833 115.208 657.125 115.25C657.333 115.25 657.542 115.208 657.75 115.125C658 115.042 658.25 114.979 658.5 114.938C659.083 114.771 659.688 114.667 660.312 114.625C660.979 114.583 661.625 114.521 662.25 114.438C664.667 114.229 667.062 114.104 669.438 114.062C671.812 113.979 674.188 113.667 676.562 113.125C676.771 113.417 677.062 113.625 677.438 113.75C677.812 113.833 678.208 113.938 678.625 114.062C679.042 114.146 679.417 114.25 679.75 114.375C680.125 114.5 680.375 114.75 680.5 115.125ZM693.875 118.125C693.875 118.833 693.688 119.458 693.312 120C692.979 120.5 692.854 121.125 692.938 121.875C692.354 122.208 691.875 122.646 691.5 123.188C691.125 123.729 690.771 124.292 690.438 124.875C687.688 126.667 684.729 128.104 681.562 129.188C678.438 130.312 675.208 130.875 671.875 130.875C671.667 130.875 671.479 130.771 671.312 130.562C671.146 130.396 670.979 130.208 670.812 130C670.646 129.792 670.458 129.583 670.25 129.375C670.083 129.208 669.875 129.125 669.625 129.125C669.333 129.125 669.104 129.188 668.938 129.312C668.938 129.229 668.938 129.146 668.938 129.062C668.979 129.021 669 128.958 669 128.875C669 128.375 668.938 127.854 668.812 127.312C668.688 126.812 668.625 126.312 668.625 125.812C668.625 125.229 668.729 124.75 668.938 124.375H669.688C670.104 124.375 670.5 124.354 670.875 124.312C671.292 124.229 671.729 124.188 672.188 124.188C672.646 124.188 673.062 124.312 673.438 124.562C675.729 124.479 677.896 124.062 679.938 123.312C682.021 122.521 684.125 121.75 686.25 121C686.583 120.542 686.771 120.042 686.812 119.5C686.896 118.917 687.062 118.375 687.312 117.875C686.229 116.958 685.125 116.25 684 115.75C682.917 115.208 681.646 115.021 680.188 115.188C679.312 114.646 678.375 114.333 677.375 114.25C676.417 114.167 675.438 114.042 674.438 113.875C674.188 113.833 673.917 113.792 673.625 113.75C673.375 113.667 673.104 113.625 672.812 113.625C672.604 113.625 672.396 113.688 672.188 113.812C672.021 113.896 671.979 114.042 672.062 114.25C671.854 113.917 671.562 113.729 671.188 113.688C670.854 113.604 670.562 113.438 670.312 113.188C668.979 113.104 667.812 112.875 666.812 112.5C665.812 112.083 664.708 111.625 663.5 111.125C663.167 111 662.833 110.917 662.5 110.875C662.208 110.792 661.917 110.667 661.625 110.5C660.875 110.125 660.271 109.625 659.812 109C659.354 108.375 659 107.688 658.75 106.938C658.458 106.146 658.25 105.333 658.125 104.5C658 103.667 657.875 102.896 657.75 102.188C658.125 101.521 658.479 100.833 658.812 100.125C659.104 99.4167 659.354 98.6667 659.562 97.875C659.812 97.75 660.062 97.6458 660.312 97.5625C660.562 97.4792 660.833 97.375 661.125 97.25C661.083 97.1667 661.062 97.0625 661.062 96.9375C661.062 96.7292 661.125 96.5208 661.25 96.3125C661.417 96.1042 661.458 95.8958 661.375 95.6875C662.292 94.8542 663.167 94 664 93.125C664.875 92.2083 665.625 91.2083 666.25 90.125C666.875 89.9167 667.375 89.6042 667.75 89.1875C668.125 88.7708 668.5 88.3542 668.875 87.9375C669.25 87.4792 669.667 87.0833 670.125 86.75C670.583 86.375 671.167 86.1458 671.875 86.0625C672.042 85.7708 672.271 85.5417 672.562 85.375C672.854 85.1667 673.146 84.9792 673.438 84.8125C673.729 84.6458 674 84.4583 674.25 84.25C674.5 84.0417 674.688 83.75 674.812 83.375C675.479 83.375 676.083 83.25 676.625 83C677.208 82.75 677.771 82.4792 678.312 82.1875C678.854 81.8958 679.396 81.625 679.938 81.375C680.521 81.125 681.146 81 681.812 81C681.979 81 682.146 81.0208 682.312 81.0625C682.479 81.0625 682.667 81.0833 682.875 81.125C683.167 81.4167 683.354 81.7708 683.438 82.1875C683.562 82.5625 683.646 82.9792 683.688 83.4375C683.729 83.8958 683.75 84.3542 683.75 84.8125C683.792 85.2708 683.875 85.6875 684 86.0625C683.625 86.7708 683.208 87.4792 682.75 88.1875C682.333 88.8958 681.771 89.4375 681.062 89.8125H680.938C680.646 89.8542 680.375 89.7917 680.125 89.625C679.875 89.4583 679.583 89.375 679.25 89.375C679.042 89.375 678.875 89.4375 678.75 89.5625L678.438 89.875C678.354 89.9583 678.229 90.0417 678.062 90.125C677.938 90.2083 677.75 90.2083 677.5 90.125C676.917 90.3333 676.688 90.6875 676.812 91.1875C676.021 91.2708 675.354 91.5208 674.812 91.9375C674.271 92.3125 673.771 92.75 673.312 93.25C672.854 93.7083 672.396 94.1458 671.938 94.5625C671.479 94.9375 670.938 95.1458 670.312 95.1875C669.604 96.4375 668.729 97.5417 667.688 98.5C666.688 99.4583 665.854 100.542 665.188 101.75C665.312 102.083 665.396 102.438 665.438 102.812C665.479 103.188 665.542 103.583 665.625 104C666 104.5 666.438 104.938 666.938 105.312C667.479 105.688 668 106.062 668.5 106.438H668.688C669.521 106.438 670.292 106.604 671 106.938C671.708 107.229 672.458 107.375 673.25 107.375C673.667 107.375 674.021 107.292 674.312 107.125C675.396 107.375 676.458 107.583 677.5 107.75C678.583 107.917 679.667 108.042 680.75 108.125C681.292 108.208 681.833 108.25 682.375 108.25C682.958 108.25 683.5 108.312 684 108.438C684.458 108.562 684.917 108.729 685.375 108.938C685.833 109.104 686.292 109.292 686.75 109.5C687.708 109.917 688.604 110.375 689.438 110.875C690.312 111.375 691.083 111.979 691.75 112.688C692.417 113.354 692.938 114.146 693.312 115.062C693.688 115.938 693.875 116.958 693.875 118.125Z" fill="black"/>
<circle id="Ellipse 1" cx="113.5" cy="123.5" r="7.5" fill="black"/>
<circle id="Ellipse 2" cx="195.5" cy="123.5" r="7.5" fill="black"/>
<circle id="Ellipse 3" cx="156.5" cy="123.5" r="7.5" fill="black"/>
</g>
<g id="track">
<g id="dots">
<circle id="dot" cx="652" cy="62" r="5" fill="black"/>
<circle id="dot_2" cx="397" cy="43" r="5" fill="black"/>
<circle id="dot_3" cx="472" cy="159" r="5" fill="black"/>
<circle id="dot_4" cx="298" cy="62" r="5" fill="black"/>
<circle id="dot_5" cx="343" cy="43" r="5" fill="black"/>
<path id="dot_6" d="M221 187C221 189.761 218.761 192 216 192C213.239 192 211 189.761 211 187C211 184.239 213.239 182 216 182C218.761 182 221 184.239 221 187Z" fill="black"/>
<circle id="dot_7" cx="522" cy="179" r="5" fill="black"/>
<circle id="dot_8" cx="239" cy="154" r="5" fill="black"/>
<path id="dot_9" d="M589 144C589 146.761 586.761 149 584 149C581.239 149 579 146.761 579 144C579 141.239 581.239 139 584 139C586.761 139 589 141.239 589 144Z" fill="black"/>
<circle id="dot_10" cx="177" cy="197" r="5" fill="black"/>
</g>
<g id="train">
<path id="Vector" d="M140.846 193.533L138.458 189.365C138.127 188.787 137.317 188.408 136.415 188.408H128.195C129.259 188.408 130.248 188.03 130.813 187.409C134.875 182.941 134.875 177.266 130.813 172.797C130.248 172.175 129.259 171.798 128.195 171.798H125.443V166.56H126.862C127.739 166.56 128.45 166.07 128.45 165.466V164.267C128.45 163.663 127.739 163.173 126.862 163.173H115.176C114.299 163.173 113.588 163.663 113.588 164.267V165.466C113.588 166.07 114.299 166.56 115.176 166.56H116.595V171.798H107.168V162.514C107.168 161.678 106.184 161 104.971 161H73.1966C71.9835 161 71 161.678 71 162.514V164.833C71 165.669 71.9835 166.347 73.1966 166.347H75.6465V188.408H73.1966C71.9835 188.408 71 189.086 71 189.922V194.09C71 194.926 71.9835 195.603 73.1966 195.603H77.9702V195.603C77.9702 190.461 84.0404 186.278 91.502 186.278C98.9636 186.278 105.034 190.461 105.034 195.603V195.603H111.58C112.838 192.622 116.835 190.436 121.561 190.436C126.288 190.436 130.285 192.622 131.542 195.603H138.803C139.53 195.603 140.211 195.356 140.619 194.941C141.029 194.526 141.113 193.999 140.846 193.533ZM99.3225 180.446C99.3225 181.232 98.3975 181.87 97.2561 181.87H85.0142C83.873 181.87 82.9478 181.233 82.9478 180.446V173.325C82.9478 170.209 86.6132 167.683 91.135 167.683C95.6571 167.683 99.3225 170.209 99.3225 173.325V180.446Z" fill="black"/>
<path id="Vector_2" d="M121.561 192.775C117.841 192.775 114.8 194.776 114.577 197.301C113.143 197.301 102.502 197.301 101.086 197.301C101.288 196.758 101.396 196.189 101.396 195.603C101.396 191.838 96.9661 188.785 91.5017 188.785C86.0377 188.785 81.608 191.838 81.608 195.603C81.608 199.368 86.0377 202.421 91.5017 202.421C94.6627 202.421 97.4754 201.398 99.2866 199.808C105.047 199.808 109.29 199.808 115.341 199.808C116.504 201.36 118.852 202.421 121.561 202.421C125.427 202.421 128.56 200.262 128.56 197.598C128.56 194.935 125.426 192.775 121.561 192.775Z" fill="black"/>
</g>
</g>
<path id="plane" d="M697.275 47.8164L689.263 42.5646L681.031 47.6874C680.848 47.8248 680.588 47.9089 680.299 47.9089C679.75 47.9089 679.306 47.6033 679.306 47.2248V36.0397L669.309 29.4897C668.91 29.2289 668.898 28.7971 669.272 28.5223C669.398 28.4298 669.557 28.3681 669.724 28.3344L717.738 19.0253C718.267 18.9243 718.812 19.1346 718.963 19.4991C719.04 19.6842 718.995 19.8749 718.865 20.0291L698.845 47.6257C698.601 47.9622 698.007 48.0996 697.519 47.9313C697.425 47.9005 697.344 47.8612 697.275 47.8164ZM687.823 41.6224L681.292 37.3436V45.6882L687.823 41.6224ZM680.454 34.9069L711.508 21.6554L671.937 29.327L680.454 34.9069ZM715.561 21.532L681.935 35.8771L697.67 46.1901L715.561 21.532Z" fill="black"/>
</g>
</svg>
