<svg width="820" height="215" viewBox="0 0 820 215" fill="none" xmlns="http://www.w3.org/2000/svg">
<g id="banner">
<g id="text">
<path id="en 180 jours" d="M274.375 86.25V86.5C274.083 86.5833 273.938 86.7917 273.938 87.125C273.479 87.3333 273 87.5 272.5 87.625C272 87.7083 271.521 87.8542 271.062 88.0625C270.604 88.0208 270.125 88 269.625 88C269.167 87.9583 268.708 87.9375 268.25 87.9375C267 87.9375 265.75 87.9792 264.5 88.0625C263.25 88.1458 262 88.1458 260.75 88.0625C260.167 88.3958 259.521 88.6667 258.812 88.875C258.146 89.0417 257.5 89.125 256.875 89.125C256.375 89.125 255.938 89.0625 255.562 88.9375C254.562 89.4375 253.458 89.8542 252.25 90.1875C251.083 90.5208 249.896 90.8542 248.688 91.1875C247.479 91.4792 246.312 91.8333 245.188 92.25C244.104 92.625 243.146 93.1667 242.312 93.875C242.229 94.4583 242.167 95.0417 242.125 95.625C242.083 96.1667 242.062 96.7083 242.062 97.25C242.062 97.8333 242.083 98.375 242.125 98.875C242.208 99.375 242.354 99.875 242.562 100.375C242.771 100.458 243 100.521 243.25 100.562C243.542 100.604 243.792 100.625 244 100.625C244.208 100.625 244.417 100.604 244.625 100.562C244.833 100.479 244.979 100.333 245.062 100.125C245.688 100.042 246.312 100.021 246.938 100.062C247.562 100.062 248.188 100.062 248.812 100.062C249.438 100.062 250.042 100.042 250.625 100C251.25 99.9583 251.854 99.8542 252.438 99.6875C253.104 99.5208 253.75 99.4167 254.375 99.375C255.042 99.3333 255.688 99.2917 256.312 99.25C256.938 99.2083 257.583 99.1458 258.25 99.0625C258.917 98.9375 259.604 98.7083 260.312 98.375C260.854 98.5833 261.396 98.6875 261.938 98.6875C262.521 98.6875 263.083 98.7292 263.625 98.8125C263.917 99.0208 264.146 99.25 264.312 99.5C264.521 99.75 264.625 100.042 264.625 100.375C264.625 100.958 264.417 101.542 264 102.125C263.583 102.708 263.25 103.25 263 103.75H262.312C261.312 103.75 260.333 103.896 259.375 104.188C258.458 104.438 257.521 104.75 256.562 105.125C255.646 105.458 254.708 105.771 253.75 106.062C252.833 106.312 251.875 106.438 250.875 106.438C250.708 106.438 250.604 106.542 250.562 106.75C250.562 106.917 250.521 107.042 250.438 107.125C250.229 107.083 249.917 107.062 249.5 107.062C248.542 107.062 247.625 107.167 246.75 107.375C245.875 107.583 244.979 107.688 244.062 107.688C243.812 107.688 243.562 107.688 243.312 107.688C243.062 107.646 242.812 107.604 242.562 107.562C242.354 107.896 242.083 108.125 241.75 108.25C241.417 108.333 241.104 108.5 240.812 108.75C240.688 109.125 240.604 109.583 240.562 110.125C240.562 110.667 240.542 111.229 240.5 111.812C240.5 112.354 240.458 112.875 240.375 113.375C240.292 113.875 240.125 114.271 239.875 114.562C239.917 114.771 240.083 114.854 240.375 114.812C240.667 114.729 240.812 114.854 240.812 115.188C240.812 115.562 240.771 115.958 240.688 116.375C240.604 116.792 240.562 117.208 240.562 117.625C240.562 118.417 240.646 119.292 240.812 120.25C241.021 121.167 241.312 122.021 241.688 122.812C242.104 123.604 242.646 124.271 243.312 124.812C243.979 125.312 244.812 125.562 245.812 125.562C246.479 125.562 247.104 125.438 247.688 125.188C248.271 124.938 248.75 124.521 249.125 123.938L249.438 123.875C249.604 123.875 249.75 123.896 249.875 123.938C250.042 123.979 250.208 124 250.375 124C250.625 124 250.938 123.854 251.312 123.562C251.729 123.229 252.167 122.854 252.625 122.438C253.125 122.021 253.625 121.625 254.125 121.25C254.625 120.833 255.104 120.542 255.562 120.375C255.854 119.792 256.125 119.208 256.375 118.625C256.667 118.042 257.083 117.583 257.625 117.25V115.438C258.042 114.979 258.479 114.562 258.938 114.188C259.438 113.812 259.812 113.333 260.062 112.75C260.271 112.833 260.458 112.896 260.625 112.938C260.833 112.979 261.042 113 261.25 113C261.458 113 261.667 112.979 261.875 112.938C262.125 112.896 262.354 112.833 262.562 112.75C262.896 113.208 263.146 113.729 263.312 114.312C263.521 114.854 263.771 115.375 264.062 115.875C263.688 116.625 263.25 117.521 262.75 118.562C262.25 119.604 261.708 120.646 261.125 121.688C260.542 122.729 259.917 123.729 259.25 124.688C258.625 125.604 258 126.312 257.375 126.812C257.25 126.938 256.979 127.083 256.562 127.25C256.104 127.583 255.688 127.896 255.312 128.188C254.938 128.521 254.583 128.896 254.25 129.312C253.042 129.688 251.875 130.188 250.75 130.812C249.667 131.438 248.583 132.042 247.5 132.625C247 132.5 246.458 132.438 245.875 132.438C245.375 132.438 244.875 132.458 244.375 132.5C243.875 132.583 243.333 132.625 242.75 132.625C242.583 132.417 242.333 132.271 242 132.188C241.708 132.146 241.604 131.938 241.688 131.562C240.271 131.479 239.125 131.083 238.25 130.375C237.375 129.708 236.625 128.875 236 127.875C235.417 126.875 234.938 125.792 234.562 124.625C234.188 123.458 233.792 122.333 233.375 121.25V121.062C233.375 120.854 233.458 120.729 233.625 120.688C233.792 120.646 233.875 120.521 233.875 120.312C233.875 120.229 233.854 120.167 233.812 120.125C233.688 119.667 233.583 119.271 233.5 118.938C233.417 118.604 233.375 118.208 233.375 117.75C233.375 117.083 233.417 116.438 233.5 115.812C233.583 115.146 233.625 114.479 233.625 113.812C233.625 113.146 233.542 112.562 233.375 112.062C233.542 111.854 233.688 111.583 233.812 111.25C233.896 110.875 233.958 110.5 234 110.125C234.042 109.75 234.062 109.375 234.062 109C234.104 108.625 234.167 108.292 234.25 108C234.083 107.542 233.938 107.146 233.812 106.812C233.688 106.438 233.625 106 233.625 105.5V105.062C234.042 104.354 234.396 103.625 234.688 102.875C234.979 102.125 235.292 101.354 235.625 100.562V100.375C235.625 99.1667 235.583 97.9583 235.5 96.75C235.417 95.5417 235.375 94.3333 235.375 93.125V91.9375C235.375 91.5208 235.396 91.125 235.438 90.75C235.771 90.5833 236.021 90.3542 236.188 90.0625C236.354 89.7708 236.604 89.5417 236.938 89.375H239L239.375 88.75C239.5 88.5417 239.583 88.3125 239.625 88.0625C240.083 87.9375 240.521 87.7708 240.938 87.5625C241.396 87.3125 241.812 87.0625 242.188 86.8125C242.771 86.4792 243.292 86.1875 243.75 85.9375C244.25 85.6458 244.729 85.4167 245.188 85.25C245.688 85.0417 246.208 84.875 246.75 84.75C247.292 84.625 247.917 84.5208 248.625 84.4375C248.958 84.4375 249.167 84.375 249.25 84.25C249.375 84.125 249.542 83.9792 249.75 83.8125C250.25 83.8958 250.75 83.9792 251.25 84.0625C251.75 84.1042 252.25 84.125 252.75 84.125C253.75 84.125 254.688 83.9375 255.562 83.5625C256.812 83.5625 258.042 83.5417 259.25 83.5C260.5 83.4583 261.75 83.4375 263 83.4375C264.083 83.4375 265.167 83.4792 266.25 83.5625C267.333 83.6458 268.396 83.7917 269.438 84C269.812 83.875 270.229 83.8125 270.688 83.8125C271.188 83.8125 271.688 83.875 272.188 84C272.729 84.0833 273.25 84.0833 273.75 84C273.792 84.4583 273.896 84.8542 274.062 85.1875C274.271 85.4792 274.375 85.8333 274.375 86.25ZM312.5 84.9375C312.417 85.4375 312.292 85.875 312.125 86.25C312 86.5833 311.979 87.0417 312.062 87.625C311.646 87.6667 311.312 87.8125 311.062 88.0625C310.854 88.2708 310.667 88.5208 310.5 88.8125C310.375 89.1042 310.229 89.4167 310.062 89.75C309.938 90.0417 309.771 90.3125 309.562 90.5625C309.896 92.0625 310.083 93.5833 310.125 95.125C310.167 96.6667 310.271 98.1875 310.438 99.6875C310.646 101.604 310.958 103.5 311.375 105.375C311.833 107.208 312.062 109.083 312.062 111C312.062 111.583 312.042 112.125 312 112.625C312 113.125 312 113.646 312 114.188C312 114.521 312 114.875 312 115.25C312.042 115.583 312.062 115.917 312.062 116.25C312.062 117.458 311.896 118.667 311.562 119.875C311.271 121.083 311.042 122.292 310.875 123.5C310.375 123.958 309.938 124.458 309.562 125C309.229 125.542 308.875 126.042 308.5 126.5C308.125 126.958 307.688 127.354 307.188 127.688C306.688 128.062 306.062 128.312 305.312 128.438C305.188 128.854 304.938 129.167 304.562 129.375C304.229 129.583 303.938 129.875 303.688 130.25H303.562C302.521 130.25 301.625 130.104 300.875 129.812C300.125 129.521 299.417 129.188 298.75 128.812C298.125 128.438 297.479 128.042 296.812 127.625C296.146 127.208 295.375 126.875 294.5 126.625C293.333 125.667 292.271 124.625 291.312 123.5C290.354 122.333 289.271 121.292 288.062 120.375C287.771 119.542 287.375 118.854 286.875 118.312C286.417 117.771 285.958 117.146 285.5 116.438C285.292 116.146 285.125 115.875 285 115.625C284.917 115.375 284.792 115.083 284.625 114.75C284.5 114.417 284.292 114.188 284 114.062C283.75 113.938 283.521 113.792 283.312 113.625C282.979 112.333 282.5 111.146 281.875 110.062C281.25 108.979 280.521 107.938 279.688 106.938C279.438 107.396 279.229 107.896 279.062 108.438C278.938 108.938 278.812 109.458 278.688 110C278.562 110.5 278.396 111.021 278.188 111.562C278.021 112.062 277.792 112.521 277.5 112.938V113.125C277.5 113.333 277.583 113.458 277.75 113.5C277.917 113.542 278 113.667 278 113.875C278 113.917 277.979 113.958 277.938 114C277.938 114.042 277.938 114.083 277.938 114.125C277.729 114.292 277.562 114.5 277.438 114.75C277.354 115 277.146 115.146 276.812 115.188C276.854 115.396 276.875 115.604 276.875 115.812V116.375C276.875 117.583 276.729 118.792 276.438 120C276.188 121.208 276.062 122.438 276.062 123.688V124.5C276.062 124.792 276.083 125.062 276.125 125.312C276.208 125.562 276.333 125.812 276.5 126.062C276.667 126.312 276.75 126.542 276.75 126.75C276.75 127.042 276.625 127.312 276.375 127.562C276.667 127.771 277 128 277.375 128.25C277.75 128.5 278.083 128.771 278.375 129.062C278.708 129.396 278.979 129.729 279.188 130.062C279.396 130.438 279.5 130.833 279.5 131.25C279.5 131.958 279.271 132.458 278.812 132.75C278.354 133.042 277.792 133.271 277.125 133.438C276.5 133.604 275.833 133.75 275.125 133.875C274.458 134.042 273.896 134.312 273.438 134.688H273.25C272.75 134.688 272.375 134.542 272.125 134.25C271.875 133.958 271.5 133.812 271 133.812C270.208 132.521 269.667 131.062 269.375 129.438C269.083 127.854 268.938 126.333 268.938 124.875C268.938 123.083 269.104 121.292 269.438 119.5C269.729 117.708 270.104 115.938 270.562 114.188C270.979 112.438 271.438 110.708 271.938 109C272.479 107.25 272.979 105.5 273.438 103.75L273.5 103.562C273.5 103.354 273.438 103.208 273.312 103.125C273.229 103.042 273.188 102.917 273.188 102.75C273.188 102.667 273.208 102.625 273.25 102.625C273.375 102.208 273.5 101.812 273.625 101.438C273.792 101.062 273.917 100.646 274 100.188C274.25 99.0208 274.417 97.8333 274.5 96.625C274.625 95.375 274.688 94.1458 274.688 92.9375C274.729 91.7292 274.771 90.5208 274.812 89.3125C274.896 88.0625 275.042 86.8333 275.25 85.625C275.583 85.2917 275.896 84.9375 276.188 84.5625C276.479 84.1875 276.854 83.8542 277.312 83.5625C278.146 83.6042 278.979 83.7292 279.812 83.9375C280.646 84.1458 281.438 84.4792 282.188 84.9375C282.688 86.7292 283.021 88.5208 283.188 90.3125C283.396 92.1042 283.729 93.8958 284.188 95.6875V95.875C284.188 96.0833 284.292 96.1875 284.5 96.1875C284.75 96.1458 284.938 96.2083 285.062 96.375C284.979 96.5 284.917 96.6458 284.875 96.8125C284.875 96.9792 284.875 97.1458 284.875 97.3125V98.375C284.958 98.7083 285.062 99.0625 285.188 99.4375C285.312 99.8125 285.583 100.042 286 100.125C286.208 101.458 286.521 102.688 286.938 103.812C287.354 104.938 287.833 106.021 288.375 107.062C288.917 108.104 289.5 109.146 290.125 110.188C290.75 111.188 291.396 112.25 292.062 113.375C293.104 114.167 294 115.083 294.75 116.125C295.5 117.125 296.25 118.104 297 119.062C297.792 119.979 298.667 120.792 299.625 121.5C300.625 122.208 301.917 122.646 303.5 122.812C303.708 122.646 303.854 122.417 303.938 122.125L304.25 121.25C304.375 120.958 304.5 120.708 304.625 120.5C304.792 120.25 305.021 120.062 305.312 119.938C305.396 118.771 305.479 117.583 305.562 116.375C305.688 115.167 305.958 114.021 306.375 112.938C306.167 112.562 306.062 112.104 306.062 111.562C306.062 111.146 306.083 110.75 306.125 110.375C306.208 110 306.25 109.625 306.25 109.25C306.25 108.458 306.083 107.812 305.75 107.312C305.75 107.021 305.771 106.729 305.812 106.438C305.854 106.104 305.979 105.792 306.188 105.5C305.854 104.667 305.583 103.792 305.375 102.875C305.208 101.958 305.125 101.021 305.125 100.062C305.125 99.5208 305.188 98.9583 305.312 98.375C305.062 97.75 304.896 97.0208 304.812 96.1875L304.562 93.625C304.479 92.75 304.354 91.9375 304.188 91.1875C304.021 90.4375 303.708 89.8333 303.25 89.375C303.5 89 303.625 88.5625 303.625 88.0625C303.625 87.2292 303.5 86.4375 303.25 85.6875C303 84.9375 302.875 84.1458 302.875 83.3125C302.875 82.7292 303 82.1458 303.25 81.5625C304.167 81.6042 305.062 81.7083 305.938 81.875C306.854 82 307.75 82.0625 308.625 82.0625C308.875 82.3958 309.167 82.6667 309.5 82.875C309.833 83.0833 310.188 83.2917 310.562 83.5C310.938 83.6667 311.292 83.8542 311.625 84.0625C312 84.2708 312.292 84.5625 312.5 84.9375ZM370 71.5625C370 72.3958 369.896 73.2083 369.688 74C369.479 74.75 369.312 75.5417 369.188 76.375C369.146 76.4583 369.125 76.6042 369.125 76.8125C369.125 77.0625 369.146 77.3125 369.188 77.5625C369.229 77.7708 369.292 77.9792 369.375 78.1875C368.958 79.0208 368.646 79.9167 368.438 80.875C368.229 81.7917 368.042 82.7292 367.875 83.6875L367.375 86.5625C367.208 87.5208 366.979 88.4583 366.688 89.375V89.5625C366.688 89.7708 366.729 89.9583 366.812 90.125C366.938 90.2917 367 90.4792 367 90.6875V90.9375C366.458 92.6875 366.042 94.5 365.75 96.375C365.458 98.2083 364.979 99.9167 364.312 101.5C364.396 101.917 364.438 102.229 364.438 102.438C364.438 102.896 364.375 103.312 364.25 103.688C364.167 104.021 364.042 104.333 363.875 104.625L363.438 105.438C363.312 105.688 363.208 105.958 363.125 106.25C363.083 106.417 363.062 106.583 363.062 106.75V107.25C363.021 108.208 362.979 109.042 362.938 109.75C362.896 110.458 362.604 111.229 362.062 112.062C362.021 113.146 361.896 114.188 361.688 115.188C361.521 116.188 361.271 117.208 360.938 118.25C360.729 119.083 360.479 119.917 360.188 120.75C359.896 121.583 359.688 122.417 359.562 123.25C359.479 123.667 359.458 124.188 359.5 124.812C359.583 125.396 359.625 125.917 359.625 126.375C359.625 127.333 359.583 128.271 359.5 129.188C359.458 130.146 359.333 131.062 359.125 131.938C359.25 132.562 359.479 133.125 359.812 133.625C360.146 134.167 360.354 134.75 360.438 135.375C360.562 135.5 360.688 135.562 360.812 135.562C360.896 135.562 360.979 135.542 361.062 135.5C361.188 135.458 361.312 135.438 361.438 135.438C361.604 135.438 361.729 135.479 361.812 135.562C361.938 135.896 362 136.188 362 136.438C362 136.938 361.771 137.375 361.312 137.75C361.354 138 361.375 138.208 361.375 138.375V139C361.375 139.292 361.333 139.667 361.25 140.125C361.208 140.583 360.979 140.812 360.562 140.812C360.354 140.812 360.25 140.688 360.25 140.438C360.292 140.229 360.208 140.083 360 140C359.75 140.083 359.542 140.125 359.375 140.125C359.042 140.125 358.771 140.062 358.562 139.938L357.938 139.562C357.729 139.438 357.5 139.312 357.25 139.188C357.042 139.104 356.771 139.083 356.438 139.125C356.104 138.5 355.729 137.896 355.312 137.312C354.938 136.771 354.5 136.271 354 135.812C353.708 134.812 353.521 133.771 353.438 132.688C353.396 131.646 353.188 130.646 352.812 129.688C352.854 129.646 352.917 129.521 353 129.312L353.25 128.688C353.333 128.479 353.396 128.271 353.438 128.062C353.521 127.854 353.562 127.708 353.562 127.625C353.562 127.375 353.521 127.146 353.438 126.938C353.354 126.771 353.292 126.583 353.25 126.375C353.542 125.417 353.729 124.375 353.812 123.25C353.896 122.125 354.167 121.146 354.625 120.312C354.667 119.896 354.708 119.417 354.75 118.875C354.792 118.292 354.854 117.75 354.938 117.25C355.062 116.708 355.208 116.208 355.375 115.75C355.583 115.25 355.875 114.833 356.25 114.5C356.167 114.292 356.104 114.062 356.062 113.812C356.062 113.521 356.062 113.271 356.062 113.062C356.062 112.062 356.167 111.104 356.375 110.188C356.625 109.229 356.896 108.271 357.188 107.312C357.271 107.021 357.354 106.729 357.438 106.438C357.562 106.146 357.667 105.833 357.75 105.5C357.792 105.417 357.792 105.333 357.75 105.25C357.75 105.167 357.75 105.083 357.75 105C357.75 104.5 357.688 104.021 357.562 103.562C357.812 103.396 357.979 103.188 358.062 102.938C358.146 102.646 358.208 102.354 358.25 102.062C358.333 101.729 358.417 101.417 358.5 101.125C358.583 100.833 358.729 100.583 358.938 100.375V100.062C358.938 98.6042 359.146 97.1875 359.562 95.8125C359.979 94.3958 360.354 93 360.688 91.625V91.375C360.688 91.2083 360.646 91.0833 360.562 91C360.479 90.9167 360.438 90.7917 360.438 90.625V90.5C360.521 90.125 360.625 89.7708 360.75 89.4375C360.875 89.0625 360.979 88.6875 361.062 88.3125C361.271 87.3958 361.396 86.4792 361.438 85.5625C361.521 84.6458 361.729 83.75 362.062 82.875C361.979 82.5417 361.938 82.2083 361.938 81.875V80.875C361.938 79.9167 361.979 79 362.062 78.125C362.188 77.2083 362.354 76.2917 362.562 75.375C362.646 75.0417 362.75 74.6042 362.875 74.0625C363.042 73.5208 363.125 73.1042 363.125 72.8125C363.125 72.3125 363.062 71.8125 362.938 71.3125C362.812 70.7708 362.75 70.25 362.75 69.75C362.75 69.5 362.771 69.25 362.812 69C362.854 68.75 362.958 68.5208 363.125 68.3125C362.833 67.7708 362.688 67.1458 362.688 66.4375C362.688 65.8542 362.771 65.2708 362.938 64.6875C363.104 64.0625 363.396 63.5417 363.812 63.125H365.688C366.271 63.125 366.854 63.2083 367.438 63.375C368.021 63.5417 368.458 63.9167 368.75 64.5C368.833 64.625 368.917 64.8542 369 65.1875C369.125 65.4792 369.229 65.8125 369.312 66.1875C369.438 66.5208 369.542 66.8542 369.625 67.1875C369.708 67.4792 369.75 67.7083 369.75 67.875C369.75 68.375 369.625 68.8333 369.375 69.25C369.667 69.5833 369.833 69.9583 369.875 70.375C369.958 70.75 370 71.1458 370 71.5625ZM430.188 64.5625C430.188 65.5625 429.917 66.5417 429.375 67.5C428.833 68.4583 428.021 69.0417 426.938 69.25C426.562 70.0833 426.083 70.8125 425.5 71.4375C424.958 72.0625 424.375 72.6667 423.75 73.25C423.167 73.8333 422.562 74.4375 421.938 75.0625C421.354 75.6458 420.854 76.3125 420.438 77.0625C420.021 77.1458 419.667 77.3333 419.375 77.625C419.125 77.9167 418.812 78.1042 418.438 78.1875C417.979 78.7708 417.521 79.3125 417.062 79.8125C416.604 80.2708 416.021 80.625 415.312 80.875C413.062 84 410.917 87.1875 408.875 90.4375C406.833 93.6458 404.792 96.875 402.75 100.125V100.5C402.75 100.958 402.667 101.333 402.5 101.625C402.333 101.917 402.188 102.25 402.062 102.625C402.479 103.167 402.958 103.625 403.5 104C404.083 104.375 404.667 104.75 405.25 105.125C405.833 105.458 406.396 105.833 406.938 106.25C407.479 106.667 407.938 107.167 408.312 107.75C408.771 107.792 409.146 107.917 409.438 108.125C409.729 108.333 410.104 108.438 410.562 108.438C410.729 108.896 410.958 109.271 411.25 109.562C411.583 109.854 411.938 110.125 412.312 110.375C412.688 110.625 413.062 110.854 413.438 111.062C413.854 111.271 414.229 111.521 414.562 111.812C414.812 112.438 415.146 113 415.562 113.5C415.979 114 416.479 114.417 417.062 114.75C417.229 115.25 417.417 115.729 417.625 116.188C417.875 116.646 418.104 117.104 418.312 117.562C418.562 117.979 418.75 118.417 418.875 118.875C419.042 119.333 419.125 119.854 419.125 120.438C419.125 121.104 419.042 121.75 418.875 122.375C418.083 123.333 417.375 124.375 416.75 125.5C416.167 126.625 415.521 127.729 414.812 128.812C413.479 129.604 412.146 130.375 410.812 131.125C409.479 131.917 408.208 132.792 407 133.75C406.25 133.792 405.562 133.938 404.938 134.188C404.354 134.479 403.771 134.875 403.188 135.375C401.812 135.667 400.438 135.958 399.062 136.25C397.729 136.583 396.354 136.75 394.938 136.75C393.604 136.75 392.562 136.625 391.812 136.375C391.062 136.125 390.396 135.792 389.812 135.375C389.229 134.958 388.646 134.479 388.062 133.938C387.479 133.438 386.688 132.917 385.688 132.375V132.188C385.688 131.979 385.729 131.812 385.812 131.688C385.896 131.604 385.938 131.479 385.938 131.312C385.938 131.062 385.792 130.667 385.5 130.125C385.208 129.625 384.979 129.271 384.812 129.062C384.688 128.271 384.625 127.438 384.625 126.562C384.625 124.354 384.896 122.354 385.438 120.562C386.021 118.729 386.729 116.979 387.562 115.312C388.396 113.604 389.271 111.917 390.188 110.25C391.104 108.583 391.917 106.792 392.625 104.875C392.167 104.125 391.542 103.542 390.75 103.125C390 102.708 389.229 102.396 388.438 102.188C388.104 101.271 387.604 100.562 386.938 100.062C386.312 99.5625 385.708 98.9792 385.125 98.3125C384.625 97.6042 384.312 96.9167 384.188 96.25C384.146 96.1667 384.125 96.125 384.125 96.125C384.167 96.0833 384.167 96.0208 384.125 95.9375C384.042 95.6875 383.896 95.6042 383.688 95.6875C383.479 95.7292 383.333 95.6458 383.25 95.4375C383.167 95.3125 383.083 94.9583 383 94.375C382.958 93.75 382.917 93.0833 382.875 92.375C382.833 91.625 382.792 90.9375 382.75 90.3125C382.75 89.6458 382.75 89.1875 382.75 88.9375C382.958 88.4375 383.167 87.8958 383.375 87.3125C383.583 86.7292 383.812 86.1667 384.062 85.625C384.312 85.0833 384.625 84.6042 385 84.1875C385.375 83.7292 385.833 83.375 386.375 83.125C386.375 82.6667 386.5 82.3125 386.75 82.0625C387 81.8125 387.104 81.4167 387.062 80.875C387.771 80.5833 388.396 80.2083 388.938 79.75C389.521 79.2917 390.104 78.8333 390.688 78.375C390.979 78.1667 391.271 78.0208 391.562 77.9375C391.854 77.8542 392.146 77.7083 392.438 77.5C392.646 77.3333 392.708 77.2083 392.625 77.125C392.583 77 392.667 76.8125 392.875 76.5625C393.5 76.6042 394.146 76.375 394.812 75.875C395.521 75.3333 396.083 74.8333 396.5 74.375H396.688C397.354 74.375 397.979 74.2083 398.562 73.875C399.146 73.5417 399.792 73.3958 400.5 73.4375C400.708 73.0208 401.021 72.7083 401.438 72.5C401.854 72.2917 402.292 72.1042 402.75 71.9375C403.25 71.7708 403.729 71.625 404.188 71.5C404.688 71.3333 405.104 71.0833 405.438 70.75C406.604 70.5833 407.75 70.3125 408.875 69.9375L412.312 68.8125C413.479 68.4375 414.625 68.0833 415.75 67.75C416.917 67.4167 418.104 67.1667 419.312 67C419.521 66.625 419.792 66.3333 420.125 66.125C420.458 65.875 420.792 65.625 421.125 65.375C421.542 65 421.896 64.5625 422.188 64.0625C422.521 63.5625 422.833 63.1042 423.125 62.6875C423.458 62.2292 423.833 61.8542 424.25 61.5625C424.667 61.2292 425.229 61.0625 425.938 61.0625C426.604 61.0625 427.188 61.25 427.688 61.625C428.188 62 428.542 62.5 428.75 63.125H428.875C429.333 63.125 429.667 62.9792 429.875 62.6875C430.083 63.3125 430.188 63.9375 430.188 64.5625ZM412.125 119.062V118.75C411.667 118.125 411.208 117.521 410.75 116.938C410.292 116.354 409.771 115.771 409.188 115.188C408.979 114.979 408.792 114.708 408.625 114.375C408.5 114.042 408.333 113.771 408.125 113.562C407.708 113.229 407.229 113.021 406.688 112.938C406.146 112.812 405.646 112.583 405.188 112.25C404.979 112.083 404.792 111.896 404.625 111.688C404.458 111.479 404.271 111.292 404.062 111.125C403.812 110.917 403.542 110.792 403.25 110.75C403 110.708 402.75 110.604 402.5 110.438C402.25 110.271 402.021 110.062 401.812 109.812C401.646 109.521 401.417 109.292 401.125 109.125C400.833 108.917 400.521 108.792 400.188 108.75C399.854 108.708 399.521 108.604 399.188 108.438H398.688C398.604 108.729 398.5 108.958 398.375 109.125C398.25 109.292 398.125 109.479 398 109.688C397.917 109.854 397.833 110.042 397.75 110.25C397.708 110.458 397.729 110.75 397.812 111.125C397.729 111.083 397.625 111.062 397.5 111.062C397.292 111.062 397.167 111.146 397.125 111.312C397.125 111.438 397.062 111.542 396.938 111.625C396.021 113.5 395.167 115.396 394.375 117.312C393.583 119.188 392.896 121.146 392.312 123.188C392.271 123.271 392.208 123.5 392.125 123.875C392.042 124.25 392 124.479 392 124.562C392 124.771 392.042 124.958 392.125 125.125C392.208 125.292 392.25 125.479 392.25 125.688C392.25 125.771 392.229 125.854 392.188 125.938C392.062 126.104 391.979 126.292 391.938 126.5C391.896 126.75 391.771 126.917 391.562 127C391.729 127.417 391.812 127.812 391.812 128.188C391.812 128.562 391.875 128.917 392 129.25C392.5 129.833 393.125 130.25 393.875 130.5C394.625 130.792 395.333 131.062 396 131.312C396.458 131.062 396.958 130.875 397.5 130.75C398.042 130.667 398.562 130.562 399.062 130.438C399.604 130.354 400.125 130.229 400.625 130.062C401.167 129.896 401.646 129.625 402.062 129.25H402.312C403.021 129.25 403.562 129.083 403.938 128.75C404.354 128.417 404.771 128 405.188 127.5C405.979 127.375 406.604 127.125 407.062 126.75C407.562 126.375 408 125.958 408.375 125.5C408.792 125 409.188 124.521 409.562 124.062C409.938 123.562 410.417 123.146 411 122.812C411.083 122.438 411.188 122.125 411.312 121.875C411.438 121.583 411.562 121.292 411.688 121C411.812 120.708 411.917 120.417 412 120.125C412.083 119.833 412.125 119.479 412.125 119.062ZM410.562 76.125C410.146 76.125 409.812 76.2292 409.562 76.4375C409.354 76.6458 409.083 76.7917 408.75 76.875C408.625 76.4583 408.375 76.25 408 76.25C407.667 76.25 407.292 76.3958 406.875 76.6875C406.458 76.9375 406.042 77.0625 405.625 77.0625C405.375 77.0625 405.167 77 405 76.875C404.375 77.5833 403.562 78.0625 402.562 78.3125C401.562 78.5208 400.646 78.6875 399.812 78.8125C399.188 79.8958 398.229 80.5833 396.938 80.875C396.938 80.75 396.917 80.6042 396.875 80.4375C396.875 80.2708 396.792 80.1875 396.625 80.1875H396.5V80.3125C396.5 80.5208 396.417 80.6667 396.25 80.75C396.125 80.8333 396.104 81.0208 396.188 81.3125C395.354 81.6875 394.604 82.1458 393.938 82.6875C393.312 83.2292 392.729 83.8333 392.188 84.5C391.688 85.1667 391.188 85.8542 390.688 86.5625C390.229 87.2708 389.771 87.9792 389.312 88.6875C389.312 88.8958 389.312 89.125 389.312 89.375C389.354 89.625 389.375 89.875 389.375 90.125C389.375 90.5417 389.271 90.9583 389.062 91.375C389.396 92.25 389.75 93.1042 390.125 93.9375C390.542 94.7292 391.021 95.4792 391.562 96.1875C392.104 96.8542 392.729 97.4375 393.438 97.9375C394.146 98.4375 395 98.8125 396 99.0625C396 98.9375 396.062 98.8542 396.188 98.8125C396.312 98.7708 396.417 98.7708 396.5 98.8125C397.25 97.2708 398.062 95.7292 398.938 94.1875C399.854 92.6042 400.979 91.2292 402.312 90.0625C402.812 89.0625 403.375 88.0833 404 87.125C404.667 86.1667 405.292 85.1875 405.875 84.1875C406 83.2708 406.271 82.5 406.688 81.875C407.104 81.25 407.562 80.6458 408.062 80.0625C408.562 79.4792 409.042 78.8958 409.5 78.3125C410 77.6875 410.354 76.9583 410.562 76.125ZM477.688 98.9375C477.688 101.562 477.438 104.125 476.938 106.625C476.479 109.083 475.917 111.562 475.25 114.062C474.792 114.521 474.438 115 474.188 115.5C473.938 115.958 473.833 116.521 473.875 117.188C473.375 117.312 473.042 117.625 472.875 118.125C472.708 118.583 472.521 119.021 472.312 119.438C471.604 119.896 470.979 120.438 470.438 121.062C469.938 121.646 469.396 122.229 468.812 122.812C468.646 122.979 468.479 123.167 468.312 123.375C468.188 123.583 468.042 123.75 467.875 123.875C467.5 124.167 467.083 124.438 466.625 124.688C466.167 124.896 465.75 125.125 465.375 125.375C464.542 125.917 463.729 126.479 462.938 127.062C462.146 127.688 461.375 128.354 460.625 129.062C458.833 129.771 457.104 130.562 455.438 131.438C453.812 132.354 452.188 133.354 450.562 134.438H449C448.458 134.771 447.958 135.042 447.5 135.25C447.042 135.458 446.5 135.562 445.875 135.562C445.042 136.104 444.125 136.542 443.125 136.875C442.125 137.25 441.104 137.583 440.062 137.875C439.021 138.167 437.979 138.438 436.938 138.688C435.896 138.938 434.917 139.229 434 139.562C433.792 139.521 433.583 139.458 433.375 139.375C433.208 139.333 433.021 139.312 432.812 139.312C432.229 139.312 431.688 139.438 431.188 139.688C430.729 139.938 430.229 140.125 429.688 140.25C429.521 140.333 429.333 140.354 429.125 140.312C428.917 140.312 428.729 140.312 428.562 140.312C427.479 140.312 426.5 140.125 425.625 139.75C424.75 139.417 423.812 139.146 422.812 138.938C422.562 138.396 422.208 137.875 421.75 137.375L420.375 135.875C419.917 135.375 419.521 134.854 419.188 134.312C418.812 133.812 418.583 133.25 418.5 132.625V132C418.5 131.542 418.458 131.083 418.375 130.625C418.292 130.167 418.188 129.708 418.062 129.25C418.354 128.5 418.646 127.708 418.938 126.875C419.229 126.042 419.542 125.229 419.875 124.438C420.208 123.604 420.583 122.812 421 122.062C421.417 121.312 421.938 120.667 422.562 120.125C422.771 119.208 423.104 118.375 423.562 117.625C423.979 116.833 424.458 116.083 425 115.375C425.5 114.625 426 113.875 426.5 113.125C427 112.375 427.417 111.562 427.75 110.688C427.958 110.729 428.083 110.688 428.125 110.562C428.208 110.438 428.271 110.312 428.312 110.188C428.396 110.021 428.479 109.896 428.562 109.812C428.646 109.729 428.812 109.729 429.062 109.812C429.062 109.396 429.146 109.062 429.312 108.812C429.479 108.521 429.646 108.25 429.812 108C430.021 107.75 430.188 107.5 430.312 107.25C430.479 106.958 430.583 106.625 430.625 106.25C430.917 106.125 431.146 105.938 431.312 105.688C431.521 105.438 431.708 105.188 431.875 104.938C432.042 104.646 432.208 104.375 432.375 104.125C432.542 103.875 432.792 103.688 433.125 103.562C433.208 103.021 433.354 102.562 433.562 102.188C433.812 101.771 434.062 101.396 434.312 101.062C434.604 100.729 434.875 100.396 435.125 100.062C435.417 99.6875 435.646 99.2708 435.812 98.8125C436.062 98.6042 436.354 98.5417 436.688 98.625C437.271 97.4583 437.958 96.3542 438.75 95.3125C439.542 94.2708 440.354 93.25 441.188 92.25C442.021 91.25 442.854 90.25 443.688 89.25C444.521 88.2083 445.25 87.125 445.875 86C446.458 85.6667 447 85.2708 447.5 84.8125C448.042 84.3125 448.479 83.75 448.812 83.125C447.979 81.5417 447.25 80.0208 446.625 78.5625C446 77.0625 445.688 75.375 445.688 73.5C445.688 73.2083 445.708 72.9167 445.75 72.625C445.792 72.3333 445.833 72.0208 445.875 71.6875C446.583 70.7292 447.271 69.9375 447.938 69.3125C448.604 68.6458 449.583 68.3125 450.875 68.3125C452.125 68.3125 453.333 68.5417 454.5 69C455.708 69.4583 456.938 69.6875 458.188 69.6875C458.812 70.1458 459.438 70.5625 460.062 70.9375C460.729 71.2708 461.417 71.6042 462.125 71.9375L462.938 72.25C463.271 72.3333 463.562 72.4375 463.812 72.5625C464.062 72.7292 464.312 72.9167 464.562 73.125C464.854 73.3333 465.125 73.5417 465.375 73.75C467.042 75.125 468.583 76.625 470 78.25C471.458 79.8333 472.896 81.4583 474.312 83.125V83.25C474.312 83.9167 474.458 84.4375 474.75 84.8125C475.042 85.1458 475.354 85.5417 475.688 86C475.688 86.75 475.792 87.4167 476 88C476.208 88.5833 476.479 89.1875 476.812 89.8125C476.812 90.3958 476.812 91 476.812 91.625C476.854 92.2083 476.958 92.7917 477.125 93.375C477.292 93.7917 477.396 94.1042 477.438 94.3125C477.604 94.8958 477.688 95.6458 477.688 96.5625V98.9375ZM472.625 98.875C472.625 97.6667 472.542 96.5625 472.375 95.5625C472.25 94.5208 472.083 93.4167 471.875 92.25C471.708 91.25 471.5 90.25 471.25 89.25C471.042 88.25 470.708 87.2917 470.25 86.375C469.833 85.4583 469.271 84.625 468.562 83.875C467.896 83.125 467.062 82.4792 466.062 81.9375H465.875C465.75 81.9375 465.604 82.0417 465.438 82.25C465.312 82.4167 465.021 82.5 464.562 82.5C464.312 82.5 464.062 82.4583 463.812 82.375C463.604 82.25 463.396 82.2083 463.188 82.25H462.938C462.438 82.5 462 82.6875 461.625 82.8125C461.25 82.9375 460.771 82.9583 460.188 82.875C459.562 83.4583 458.896 84 458.188 84.5C457.521 84.9583 456.771 85.3125 455.938 85.5625C455.562 86.3125 455.083 86.9792 454.5 87.5625C453.917 88.1042 453.208 88.4792 452.375 88.6875C452.208 89.1875 451.958 89.625 451.625 90C451.333 90.3333 451 90.6458 450.625 90.9375C450.25 91.1875 449.854 91.4375 449.438 91.6875C449.021 91.9375 448.646 92.2083 448.312 92.5C447.979 92.8333 447.708 93.1875 447.5 93.5625C447.333 93.8958 447.083 94.2083 446.75 94.5C446.292 94.9167 445.875 95.3125 445.5 95.6875C445.167 96.0625 444.833 96.5 444.5 97C444.208 97.4583 443.917 97.9167 443.625 98.375C443.375 98.8333 443.229 99.3542 443.188 99.9375C441.979 100.646 441.021 101.562 440.312 102.688L438.188 106.062C437.896 106.479 437.604 106.854 437.312 107.188L436.438 108.188C436.312 108.354 436.229 108.542 436.188 108.75C436.188 108.958 436.208 109.167 436.25 109.375C435.667 109.792 435.167 110.292 434.75 110.875C434.333 111.417 433.938 112 433.562 112.625C433.229 113.25 432.854 113.875 432.438 114.5C432.062 115.083 431.604 115.604 431.062 116.062C430.729 116.896 430.333 117.75 429.875 118.625C429.458 119.458 428.896 120.167 428.188 120.75C427.479 122.5 426.792 124.229 426.125 125.938C425.5 127.646 425.062 129.438 424.812 131.312C425.104 131.604 425.396 131.854 425.688 132.062C425.979 132.312 426.271 132.583 426.562 132.875C426.604 132.917 426.688 132.938 426.812 132.938C427.021 132.938 427.167 132.875 427.25 132.75C427.375 132.625 427.521 132.562 427.688 132.562C427.771 132.562 427.812 132.562 427.812 132.562L427.938 132.625C427.979 132.917 428.104 133.125 428.312 133.25C428.521 133.375 428.771 133.458 429.062 133.5C429.354 133.583 429.646 133.646 429.938 133.688C430.229 133.729 430.458 133.833 430.625 134C431.542 133.708 432.562 133.479 433.688 133.312C434.812 133.188 435.917 133.021 437 132.812C438.125 132.646 439.208 132.396 440.25 132.062C441.292 131.729 442.188 131.25 442.938 130.625H443.625C444.042 130.625 444.333 130.708 444.5 130.875C445.292 130.083 446.083 129.479 446.875 129.062C447.667 128.646 448.604 128.417 449.688 128.375C451.271 126.917 453.062 125.75 455.062 124.875C457.104 123.958 459.042 122.958 460.875 121.875C461.083 121.792 461.188 121.646 461.188 121.438C461.188 121.188 461.292 121.042 461.5 121C461.708 120.958 461.875 120.958 462 121C462.167 121 462.333 121 462.5 121C463.958 119.583 465.354 118.146 466.688 116.688C468.062 115.188 469.271 113.562 470.312 111.812C470.312 111.521 470.333 111.271 470.375 111.062C470.458 110.812 470.5 110.583 470.5 110.375C470.5 110.292 470.479 110.208 470.438 110.125C470.396 110 470.354 109.896 470.312 109.812C471.146 108.146 471.729 106.375 472.062 104.5C472.438 102.583 472.625 100.708 472.625 98.875ZM458.188 76.375C457.646 76 457 75.6667 456.25 75.375C455.5 75.0417 454.792 74.875 454.125 74.875C453.417 74.875 452.896 75.0833 452.562 75.5C452.271 75.875 452.125 76.3958 452.125 77.0625C452.125 77.4375 452.229 77.75 452.438 78C452.646 78.2083 452.688 78.625 452.562 79.25C452.688 79.3333 452.854 79.375 453.062 79.375C453.562 79.375 454.042 79.2708 454.5 79.0625C454.958 78.8542 455.375 78.6042 455.75 78.3125C456.167 77.9792 456.562 77.6458 456.938 77.3125C457.354 76.9375 457.771 76.625 458.188 76.375ZM551.875 83.5625C551.667 83.9375 551.562 84.3125 551.562 84.6875C551.562 85.0625 551.521 85.4375 551.438 85.8125C551.062 85.8542 550.688 85.9792 550.312 86.1875C549.938 86.3958 549.562 86.6042 549.188 86.8125C548.854 87.0208 548.5 87.2292 548.125 87.4375C547.75 87.6042 547.375 87.6875 547 87.6875C546.667 87.6875 546.354 87.5833 546.062 87.375C545.771 87.1667 545.521 86.9375 545.312 86.6875C544.562 86.9375 543.75 87.0833 542.875 87.125C542 87.125 541.104 87.1458 540.188 87.1875C539.312 87.1875 538.438 87.25 537.562 87.375C536.729 87.4583 535.958 87.6875 535.25 88.0625C535.375 88.4375 535.458 88.8333 535.5 89.25C535.583 89.625 535.667 90 535.75 90.375C535.875 90.75 536.021 91.1042 536.188 91.4375C536.396 91.7708 536.667 92.0625 537 92.3125C537 92.7708 537.042 93.1875 537.125 93.5625C537.208 93.9375 537.25 94.3333 537.25 94.75C537.958 96.3333 538.708 97.9375 539.5 99.5625C540.292 101.188 540.833 102.875 541.125 104.625C541.208 105.083 541.354 105.375 541.562 105.5C541.812 105.583 541.958 105.729 542 105.938V108C542.458 108.5 542.771 109.062 542.938 109.688C543.146 110.271 543.292 110.896 543.375 111.562C543.458 112.188 543.521 112.833 543.562 113.5C543.604 114.167 543.688 114.812 543.812 115.438C543.562 115.771 543.312 116.125 543.062 116.5C542.854 116.875 542.75 117.292 542.75 117.75C542.75 118.125 542.792 118.396 542.875 118.562C542.417 118.521 542.104 118.646 541.938 118.938C541.771 119.229 541.646 119.562 541.562 119.938C540.896 120.396 540.229 120.854 539.562 121.312C538.896 121.729 538.271 122.229 537.688 122.812C537.229 122.854 536.812 122.958 536.438 123.125C536.104 123.292 535.708 123.479 535.25 123.688C534.792 123.771 534.312 123.812 533.812 123.812H532.438C531.021 123.812 529.604 123.75 528.188 123.625C526.812 123.458 525.417 123.271 524 123.062C523.417 122.604 522.75 122.292 522 122.125C521.25 121.917 520.521 121.771 519.812 121.688C519.104 121.188 518.271 120.688 517.312 120.188C516.354 119.688 515.458 119.458 514.625 119.5C514.375 118.833 513.979 118.375 513.438 118.125C512.896 117.875 512.333 117.729 511.75 117.688C511.792 117.562 511.812 117.375 511.812 117.125C511.812 116.833 511.729 116.625 511.562 116.5C511.396 116.333 511.208 116.208 511 116.125C510.792 116 510.562 115.896 510.312 115.812C510.062 115.688 509.854 115.562 509.688 115.438C509.229 115.104 508.833 114.729 508.5 114.312C508.167 113.854 507.833 113.396 507.5 112.938C507.167 112.479 506.812 112.042 506.438 111.625C506.062 111.208 505.646 110.833 505.188 110.5C505.021 109.542 504.833 108.604 504.625 107.688C504.417 106.729 504.312 105.771 504.312 104.812C504.312 104.479 504.417 104.167 504.625 103.875C504.833 103.583 505.062 103.312 505.312 103.062C505.562 102.812 505.812 102.542 506.062 102.25C506.312 101.958 506.479 101.646 506.562 101.312C507.188 101.604 507.917 101.75 508.75 101.75C509.667 101.75 510.562 101.625 511.438 101.375C512.312 101.083 513.229 100.938 514.188 100.938C514.479 100.938 514.75 100.979 515 101.062C515.25 101.104 515.5 101.125 515.75 101.125C516.042 101.125 516.208 101.042 516.25 100.875C516.333 100.667 516.542 100.562 516.875 100.562C517.458 100.562 517.958 100.792 518.375 101.25C518.792 101.667 519.188 102.042 519.562 102.375C519.521 102.958 519.333 103.375 519 103.625C518.667 103.875 518.396 104.208 518.188 104.625C517.521 104.667 516.938 104.792 516.438 105C515.979 105.167 515.521 105.375 515.062 105.625C514.604 105.833 514.125 106.021 513.625 106.188C513.125 106.354 512.5 106.438 511.75 106.438C511.5 106.438 511.292 106.625 511.125 107C510.958 107.375 510.771 107.646 510.562 107.812C510.896 108.146 511.188 108.5 511.438 108.875C511.729 109.25 512 109.625 512.25 110C512.542 110.333 512.875 110.625 513.25 110.875C513.625 111.125 514.083 111.312 514.625 111.438C514.708 111.771 514.833 112.042 515 112.25C515.208 112.417 515.375 112.646 515.5 112.938C516.458 113.271 517.333 113.667 518.125 114.125C518.917 114.542 519.708 114.958 520.5 115.375C521.292 115.75 522.104 116.083 522.938 116.375C523.771 116.667 524.729 116.875 525.812 117C526.146 117.042 526.292 117.167 526.25 117.375C526.208 117.542 526.292 117.646 526.5 117.688C526.667 117.688 526.854 117.688 527.062 117.688C527.312 117.646 527.521 117.625 527.688 117.625C528.146 117.625 528.583 117.667 529 117.75C529.417 117.833 529.854 117.958 530.312 118.125C530.812 117.958 531.438 117.812 532.188 117.688C532.979 117.521 533.729 117.312 534.438 117.062C535.188 116.771 535.812 116.417 536.312 116C536.812 115.542 537.062 114.938 537.062 114.188C537.062 112.896 536.792 111.708 536.25 110.625C535.708 109.5 535.292 108.333 535 107.125C534.917 106.708 534.854 106.25 534.812 105.75C534.771 105.25 534.688 104.75 534.562 104.25C534.479 103.75 534.333 103.312 534.125 102.938C533.958 102.521 533.667 102.188 533.25 101.938C533.25 101.604 533.208 101.25 533.125 100.875C533.042 100.458 532.771 100.208 532.312 100.125C532.188 99.2083 531.938 98.3333 531.562 97.5C531.229 96.625 530.854 95.7708 530.438 94.9375C530.062 94.1042 529.708 93.25 529.375 92.375C529.042 91.5 528.833 90.5833 528.75 89.625C527.417 89.625 526.125 89.7708 524.875 90.0625C523.625 90.3542 522.375 90.7083 521.125 91.125C519.917 91.5 518.688 91.8958 517.438 92.3125C516.188 92.6875 514.938 93 513.688 93.25C512.938 92.9167 512.271 92.5208 511.688 92.0625C511.146 91.6042 510.417 91.3125 509.5 91.1875C509.625 90.6458 509.729 90.0417 509.812 89.375C509.896 88.7083 510.042 88.0625 510.25 87.4375C510.458 86.8125 510.75 86.2708 511.125 85.8125C511.5 85.3125 512 84.9583 512.625 84.75C513.292 84.875 514.042 84.9375 514.875 84.9375C516.125 84.9375 517.333 84.7708 518.5 84.4375C519.667 84.1042 520.854 83.75 522.062 83.375H522.562C523.771 83.375 525.083 83.2292 526.5 82.9375C527.917 82.6458 529.188 82.25 530.312 81.75C530.479 81.8333 530.542 81.9375 530.5 82.0625C530.5 82.1458 530.583 82.2083 530.75 82.25C531.208 81.8333 531.812 81.5833 532.562 81.5C533.312 81.4167 534.083 81.375 534.875 81.375C535.708 81.3333 536.5 81.2708 537.25 81.1875C538 81.1042 538.604 80.8542 539.062 80.4375C539.646 80.6458 540.25 80.7917 540.875 80.875C541.542 80.9167 542.208 80.9375 542.875 80.9375C543.708 80.9375 544.521 80.9167 545.312 80.875C546.146 80.7917 546.979 80.7292 547.812 80.6875C547.562 80.6042 547.438 80.5 547.438 80.375C547.438 80.2917 547.479 80.1667 547.562 80C548.104 80.125 548.583 80.3333 549 80.625C549.458 80.875 549.958 81.0417 550.5 81.125C550.375 81.3333 550.312 81.5625 550.312 81.8125C550.312 82.2708 550.5 82.625 550.875 82.875C551.25 83.0833 551.583 83.3125 551.875 83.5625ZM590 89.8125C589.75 90.1875 589.604 90.6042 589.562 91.0625C589.521 91.5208 589.5 91.9375 589.5 92.3125C589.5 92.8125 589.5 93.3125 589.5 93.8125C589.542 94.2708 589.562 94.7292 589.562 95.1875V96.125C589.479 96.4167 589.354 96.7083 589.188 97C589.021 97.2917 588.896 97.5833 588.812 97.875C588.229 99.4167 587.938 100.958 587.938 102.5V102.625C587.729 103.125 587.521 103.583 587.312 104C587.146 104.417 586.979 104.833 586.812 105.25C586.646 105.625 586.521 106.042 586.438 106.5C586.354 106.917 586.333 107.417 586.375 108C585.792 109.458 585.021 110.792 584.062 112C583.104 113.167 582.167 114.375 581.25 115.625C580.375 115.958 579.562 116.396 578.812 116.938C578.104 117.479 577.417 118.083 576.75 118.75C575.458 119.167 574.188 119.646 572.938 120.188C571.688 120.729 570.562 121.458 569.562 122.375C568.771 122.458 567.979 122.583 567.188 122.75C566.396 122.917 565.625 123.167 564.875 123.5H564.125C563.75 123.5 563.479 123.417 563.312 123.25C562.771 123.542 562.208 123.75 561.625 123.875C561.042 123.958 560.458 124 559.875 124C559.125 124 558.375 123.958 557.625 123.875C556.917 123.75 556.188 123.625 555.438 123.5C555.021 122.917 554.438 122.479 553.688 122.188C552.938 121.854 552.271 121.542 551.688 121.25C550.479 119.583 549.604 117.979 549.062 116.438C548.521 114.854 547.958 113.083 547.375 111.125C547.458 110.542 547.604 109.979 547.812 109.438C548.021 108.854 548.104 108.229 548.062 107.562C548.812 105.396 549.792 103.438 551 101.688C552.25 99.8958 553.667 98.1875 555.25 96.5625C555.25 96.3125 555.292 96.1042 555.375 95.9375C555.5 95.7708 555.521 95.5208 555.438 95.1875C555.479 95.2292 555.562 95.25 555.688 95.25C556.021 95.25 556.229 95.1667 556.312 95C556.396 94.7917 556.417 94.5625 556.375 94.3125C557.875 93.3542 559.229 92.25 560.438 91C561.688 89.75 563.104 88.7083 564.688 87.875C564.812 87.5 565.021 87.1875 565.312 86.9375C565.604 86.6875 565.833 86.3958 566 86.0625C567.333 85.6875 568.542 85.125 569.625 84.375C570.708 83.625 571.854 82.9583 573.062 82.375C573.729 82 574.354 81.75 574.938 81.625C575.562 81.4583 576.229 81.2917 576.938 81.125C577.188 81.0417 577.417 80.9792 577.625 80.9375C577.833 80.8958 578.062 80.875 578.312 80.875C579.062 80.875 579.792 81.0208 580.5 81.3125C581.208 81.5625 581.938 81.6875 582.688 81.6875C582.896 81.6875 583.062 81.6875 583.188 81.6875C583.354 81.6458 583.521 81.6042 583.688 81.5625C584.396 82.4375 585.292 83.1042 586.375 83.5625C586.625 84.1875 586.917 84.7292 587.25 85.1875C587.625 85.6458 588 86.1042 588.375 86.5625C588.75 86.9792 589.083 87.4583 589.375 88C589.708 88.5 589.917 89.1042 590 89.8125ZM583.75 93.0625C583.75 92.8542 583.729 92.6667 583.688 92.5C583.271 92.375 582.875 92.2083 582.5 92C582.125 91.7917 581.708 91.6875 581.25 91.6875C580.958 91.6875 580.667 91.75 580.375 91.875C580.333 91.5833 580.208 91.375 580 91.25C579.833 91.125 579.625 91.0208 579.375 90.9375C579.167 90.8125 578.938 90.7292 578.688 90.6875C578.479 90.6042 578.292 90.4792 578.125 90.3125C578 89.9792 577.854 89.6458 577.688 89.3125C577.562 88.9375 577.312 88.6667 576.938 88.5C576.562 88.875 576.125 89.1875 575.625 89.4375C575.125 89.6458 574.604 89.8542 574.062 90.0625C573.562 90.2708 573.062 90.5208 572.562 90.8125C572.104 91.1042 571.708 91.4583 571.375 91.875H570.25C570 92.3333 569.646 92.6875 569.188 92.9375C568.729 93.1458 568.333 93.4583 568 93.875C567.333 94.2083 566.708 94.625 566.125 95.125C565.583 95.5833 565.042 96.0833 564.5 96.625C563.958 97.125 563.417 97.6458 562.875 98.1875C562.375 98.7292 561.833 99.2292 561.25 99.6875C560.708 100.854 560.104 101.875 559.438 102.75C558.812 103.583 558.208 104.438 557.625 105.312C557.083 106.188 556.604 107.146 556.188 108.188C555.812 109.188 555.625 110.438 555.625 111.938V112.562C555.625 112.771 555.646 112.979 555.688 113.188C556.229 113.771 556.667 114.396 557 115.062C557.375 115.729 557.979 116.208 558.812 116.5C559.646 116.833 560.521 116.979 561.438 116.938C562.396 116.896 563.312 117 564.188 117.25C566.188 116.875 568.104 116.271 569.938 115.438C571.812 114.562 573.583 113.521 575.25 112.312C575.5 112.104 575.792 111.896 576.125 111.688C576.458 111.438 576.729 111.188 576.938 110.938C577.146 110.729 577.312 110.5 577.438 110.25C577.604 110 577.771 109.771 577.938 109.562C578.271 109.021 578.646 108.479 579.062 107.938C579.479 107.396 579.917 106.896 580.375 106.438C580.583 105.521 580.854 104.646 581.188 103.812C581.521 102.938 581.854 102.083 582.188 101.25C582.521 100.417 582.792 99.5625 583 98.6875C583.25 97.8125 583.375 96.8958 583.375 95.9375C583.375 95.7292 583.354 95.5 583.312 95.25C583.312 95 583.292 94.7708 583.25 94.5625C583.583 94.1042 583.75 93.6042 583.75 93.0625ZM633.25 115.875C633.083 116.5 632.812 117.021 632.438 117.438C632.062 117.854 631.625 118.229 631.125 118.562C630.667 118.896 630.167 119.208 629.625 119.5C629.083 119.75 628.562 120.042 628.062 120.375H627.25C625.5 120.375 624.146 119.958 623.188 119.125C622.271 118.25 621.562 117.188 621.062 115.938C620.562 114.646 620.188 113.271 619.938 111.812C619.729 110.354 619.458 109.021 619.125 107.812C618.625 108.229 618.208 108.729 617.875 109.312C617.542 109.854 617.188 110.396 616.812 110.938C616.479 111.479 616.083 111.979 615.625 112.438C615.208 112.896 614.646 113.208 613.938 113.375C613.812 113.667 613.667 113.958 613.5 114.25C613.375 114.542 613.292 114.854 613.25 115.188C612.333 115.688 611.5 116.271 610.75 116.938C610 117.604 609.25 118.292 608.5 119C607.75 119.708 606.979 120.396 606.188 121.062C605.438 121.688 604.583 122.208 603.625 122.625C603.583 122.583 603.5 122.562 603.375 122.562C602.875 122.562 602.417 122.688 602 122.938C601.583 123.146 601.125 123.25 600.625 123.25C600.292 123.25 599.979 123.188 599.688 123.062C599.438 122.938 599.167 122.792 598.875 122.625C598.625 122.458 598.354 122.333 598.062 122.25C597.771 122.167 597.458 122.146 597.125 122.188C596.708 121.438 596.146 120.75 595.438 120.125C594.771 119.458 594.354 118.708 594.188 117.875C594.104 117.5 594.042 117.125 594 116.75C594 116.333 593.958 115.917 593.875 115.5C593.75 114.875 593.583 114.25 593.375 113.625C593.167 112.958 593 112.292 592.875 111.625C593.083 110.5 593.292 109.271 593.5 107.938C593.667 106.562 593.875 105.208 594.125 103.875C594.417 102.5 594.792 101.208 595.25 100C595.75 98.75 596.375 97.6875 597.125 96.8125L597.062 96.375C597.062 95.7083 597.188 95.0833 597.438 94.5C597.688 93.9167 597.958 93.3542 598.25 92.8125C598.542 92.2708 598.792 91.7292 599 91.1875C599.208 90.6458 599.25 90.0417 599.125 89.375C599.625 89.125 600.146 88.9167 600.688 88.75C601.229 88.5833 601.792 88.5 602.375 88.5C602.917 88.5 603.417 88.5833 603.875 88.75C603.792 89.0833 603.938 89.2917 604.312 89.375V89.5625C604.312 90.4375 604.208 91.2917 604 92.125C603.792 92.9583 603.542 93.7917 603.25 94.625C602.958 95.4167 602.667 96.2292 602.375 97.0625C602.125 97.8542 601.938 98.6667 601.812 99.5C601.646 99.5417 601.521 99.625 601.438 99.75C601.396 99.875 601.354 100 601.312 100.125C601.271 100.25 601.208 100.354 601.125 100.438C601.042 100.521 600.917 100.562 600.75 100.562C600.5 102.021 600.229 103.479 599.938 104.938C599.688 106.354 599.562 107.792 599.562 109.25C599.562 110.125 599.646 111.021 599.812 111.938C599.979 112.854 600.292 113.729 600.75 114.562L601 114.5C601.458 114.5 601.812 114.604 602.062 114.812C602.354 115.021 602.729 115.229 603.188 115.438C603.521 115.354 603.833 115.25 604.125 115.125C604.417 114.958 604.542 114.688 604.5 114.312C605.042 114.271 605.5 114.146 605.875 113.938C606.25 113.688 606.583 113.417 606.875 113.125L607.812 112.25C608.146 111.958 608.542 111.75 609 111.625C609 111.375 609.062 111.188 609.188 111.062L609.562 110.688C609.688 110.562 609.771 110.438 609.812 110.312C609.896 110.146 609.917 109.917 609.875 109.625C610.375 109.583 610.75 109.458 611 109.25C611.292 109.042 611.542 108.812 611.75 108.562C612 108.271 612.229 107.979 612.438 107.688C612.646 107.396 612.917 107.146 613.25 106.938C613.542 106.312 613.938 105.479 614.438 104.438C614.979 103.396 615.5 102.312 616 101.188C616.542 100.062 617 99 617.375 98C617.792 96.9583 618 96.1667 618 95.625C618 95.4167 617.938 95.2292 617.812 95.0625C617.729 94.8958 617.708 94.7083 617.75 94.5V94.3125C618.083 93.8958 618.375 93.4375 618.625 92.9375C618.917 92.4375 619.208 91.9583 619.5 91.5C619.833 91.0417 620.188 90.625 620.562 90.25C620.938 89.875 621.417 89.5833 622 89.375C622.667 89.5833 623.333 89.7292 624 89.8125C624.708 89.8958 625.375 90.0625 626 90.3125C626.042 91.3542 626.146 92.5625 626.312 93.9375C626.479 95.3125 626.771 96.4792 627.188 97.4375C627.188 97.9792 627.167 98.5 627.125 99C627.125 99.5 627.125 100 627.125 100.5C627.125 101.333 627.146 102.188 627.188 103.062C627.271 103.938 627.417 104.75 627.625 105.5C627.333 106.125 627.188 106.792 627.188 107.5C627.188 108.458 627.333 109.375 627.625 110.25C627.917 111.083 628.125 111.979 628.25 112.938C628.792 113.688 629.5 114.062 630.375 114.062C630.583 114.062 630.75 114.042 630.875 114C631.042 113.958 631.208 113.896 631.375 113.812C631.708 114.188 632 114.562 632.25 114.938C632.542 115.271 632.875 115.583 633.25 115.875ZM715.25 115.125C715.167 115.75 714.938 116.229 714.562 116.562C714.229 116.896 713.833 117.208 713.375 117.5C713.167 117.458 712.958 117.438 712.75 117.438C712.583 117.396 712.396 117.375 712.188 117.375C710.896 117.333 709.667 117.5 708.5 117.875C707.375 118.25 706.208 118.521 705 118.688C704.583 118.771 704.188 118.812 703.812 118.812C703.479 118.771 703.125 118.792 702.75 118.875C701.417 119.083 700 119.25 698.5 119.375C697 119.5 695.5 119.667 694 119.875C692.5 120.042 691.021 120.271 689.562 120.562C688.146 120.812 686.812 121.188 685.562 121.688C685.438 121.604 685.312 121.521 685.188 121.438C685.062 121.312 684.917 121.25 684.75 121.25C684.333 121.25 683.938 121.312 683.562 121.438C683.188 121.562 682.812 121.604 682.438 121.562C682.021 121.812 681.562 122 681.062 122.125C680.604 122.208 680.125 122.292 679.625 122.375C679.167 122.417 678.708 122.5 678.25 122.625C677.792 122.75 677.354 122.979 676.938 123.312C676.604 123.146 676.188 123.062 675.688 123.062C675.229 123.021 674.917 122.854 674.75 122.562C673.792 123.021 672.771 123.312 671.688 123.438C670.646 123.562 669.583 123.604 668.5 123.562C667.792 123.521 666.979 123.417 666.062 123.25C665.146 123.083 664.229 122.854 663.312 122.562C662.396 122.229 661.542 121.854 660.75 121.438C659.958 120.979 659.354 120.438 658.938 119.812C658.646 119.396 658.438 118.938 658.312 118.438C658.188 117.938 657.896 117.562 657.438 117.312C657.562 116.354 657.708 115.417 657.875 114.5C658.042 113.583 658.208 112.646 658.375 111.688C659.208 110.979 660 110.229 660.75 109.438C661.5 108.646 662.208 107.812 662.875 106.938C663.667 106.562 664.396 106.104 665.062 105.562C665.771 105.021 666.458 104.479 667.125 103.938C667.833 103.354 668.521 102.792 669.188 102.25C669.896 101.708 670.646 101.229 671.438 100.812C671.562 100.521 671.729 100.292 671.938 100.125C672.188 99.9167 672.438 99.7292 672.688 99.5625C672.938 99.3542 673.167 99.1458 673.375 98.9375C673.583 98.6875 673.729 98.3958 673.812 98.0625C675.271 97.1875 676.542 96.0833 677.625 94.75C678.708 93.4167 679.417 91.9167 679.75 90.25C679.042 89.6667 678.229 89.2917 677.312 89.125C676.438 88.9167 675.521 88.7708 674.562 88.6875C673.729 88.6458 672.854 88.6458 671.938 88.6875C671.062 88.7292 670.167 88.7083 669.25 88.625C668.333 88.9167 667.375 89.1042 666.375 89.1875C665.417 89.2708 664.458 89.3542 663.5 89.4375C662.542 89.4792 661.583 89.6042 660.625 89.8125C659.708 89.9792 658.812 90.3125 657.938 90.8125C657.771 90.8125 657.604 90.7917 657.438 90.75C657.312 90.7083 657.167 90.6875 657 90.6875C655.667 90.6458 654.417 90.9167 653.25 91.5C652.083 92.0417 650.938 92.5833 649.812 93.125C649.729 93.2917 649.688 93.4167 649.688 93.5C649.688 93.75 649.729 94 649.812 94.25C649.938 94.4583 650 94.6875 650 94.9375C649.958 94.9792 649.938 95.0208 649.938 95.0625C649.938 95.1042 649.917 95.1458 649.875 95.1875C649.833 95.3958 649.771 95.5833 649.688 95.75C649.646 95.9167 649.583 96.1042 649.5 96.3125C649.042 97.6458 648.792 98.9583 648.75 100.25C648.708 101.333 648.708 102.396 648.75 103.438C648.792 104.479 648.792 105.542 648.75 106.625C648.667 107.958 648.458 109.208 648.125 110.375C648.333 111.375 648.521 112.438 648.688 113.562C648.854 114.646 649.062 115.729 649.312 116.812C649.562 117.896 649.854 118.958 650.188 120C650.562 121 651.042 121.958 651.625 122.875C651.583 122.958 651.604 123.021 651.688 123.062C651.771 123.104 651.854 123.125 651.938 123.125H652.438C652.646 123.125 652.729 123.208 652.688 123.375C652.771 123.5 652.833 123.625 652.875 123.75C652.917 123.833 653 123.917 653.125 124C653.208 124.125 653.208 124.292 653.125 124.5C653.083 125.333 652.875 126.104 652.5 126.812C652.125 127.521 651.896 128.292 651.812 129.125C651.312 129.25 650.854 129.312 650.438 129.312C649.729 129.271 649.104 129.062 648.562 128.688C648.021 128.354 647.521 127.938 647.062 127.438C646.604 126.938 646.167 126.438 645.75 125.938C645.333 125.396 644.875 124.938 644.375 124.562C644.083 123.396 643.792 122.104 643.5 120.688C643.25 119.271 642.812 118.062 642.188 117.062C642.354 116.688 642.438 116.229 642.438 115.688C642.479 114.854 642.396 114.042 642.188 113.25C642.021 112.417 641.979 111.583 642.062 110.75C642.062 110.292 642.104 109.833 642.188 109.375C642.312 108.917 642.396 108.458 642.438 108C642.479 107.292 642.396 106.604 642.188 105.938C642.021 105.271 641.958 104.583 642 103.875C642.042 103.542 642.104 103.229 642.188 102.938C642.312 102.604 642.479 102.312 642.688 102.062C642.479 101.562 642.417 101.083 642.5 100.625C642.542 99.9167 642.625 99.25 642.75 98.625C642.875 98 642.958 97.375 643 96.75C643 96.4167 642.979 96.1042 642.938 95.8125C642.896 95.4792 642.833 95.1667 642.75 94.875L642.188 94.6875C641.938 94.6875 641.688 94.75 641.438 94.875C641.229 95 641.042 95.1458 640.875 95.3125C640.708 95.4792 640.562 95.625 640.438 95.75C640.312 95.8333 640.188 95.875 640.062 95.875C639.979 95.875 639.875 95.875 639.75 95.875C639.667 95.8333 639.583 95.8125 639.5 95.8125C639.417 95.8125 639.25 95.8958 639 96.0625C638.792 96.2292 638.521 96.4167 638.188 96.625C637.896 96.7917 637.604 96.9792 637.312 97.1875C637.021 97.3542 636.792 97.4583 636.625 97.5C636.167 97.4167 635.792 97.2708 635.5 97.0625C635.25 96.8125 635 96.5833 634.75 96.375C634.542 96.125 634.312 95.9167 634.062 95.75C633.812 95.5417 633.5 95.4583 633.125 95.5C633 95.25 632.938 94.9792 632.938 94.6875C632.896 94.3958 632.896 94.1042 632.938 93.8125V92.8125C633.229 92.2708 633.625 91.8333 634.125 91.5C634.583 91.125 635.083 90.8125 635.625 90.5625L637.25 89.8125C637.792 89.5625 638.292 89.25 638.75 88.875H639.312C640.062 88.9167 640.708 88.7708 641.25 88.4375C641.833 88.1042 642.375 87.7292 642.875 87.3125C643.375 86.8542 643.875 86.3958 644.375 85.9375C644.917 85.4792 645.5 85.125 646.125 84.875C646.583 85.0833 647.062 85.2708 647.562 85.4375C648.062 85.5625 648.583 85.6458 649.125 85.6875C649.667 85.6875 650.229 85.6042 650.812 85.4375C651.396 85.2708 651.854 84.9583 652.188 84.5C652.396 84.5833 652.562 84.6458 652.688 84.6875C652.854 84.6875 653.042 84.6875 653.25 84.6875C653.875 84.7292 654.5 84.6458 655.125 84.4375C655.75 84.1875 656.354 83.8958 656.938 83.5625C657.771 83.6042 658.583 83.5625 659.375 83.4375C660.208 83.2708 661.021 83.1042 661.812 82.9375C662.646 82.7708 663.458 82.625 664.25 82.5C665.083 82.3333 665.917 82.2708 666.75 82.3125C668.125 82.3542 669.479 82.2292 670.812 81.9375C672.146 81.6458 673.5 81.5417 674.875 81.625C675.833 81.6667 676.771 81.75 677.688 81.875C678.646 81.9583 679.604 81.9792 680.562 81.9375C681.104 82.1875 681.583 82.4167 682 82.625C682.458 82.7917 683.021 82.8333 683.688 82.75C685.021 83.875 686.229 85.1875 687.312 86.6875V87.75C687.271 88.7083 687.104 89.6458 686.812 90.5625C686.521 91.4792 686.167 92.3958 685.75 93.3125C685.375 94.1875 684.958 95.0625 684.5 95.9375C684.042 96.7708 683.604 97.6042 683.188 98.4375C680.479 100.896 677.771 103.333 675.062 105.75C672.354 108.167 669.562 110.5 666.688 112.75C666.604 113.167 666.479 113.542 666.312 113.875C666.188 114.208 666.104 114.562 666.062 114.938C666.062 115.146 666.083 115.312 666.125 115.438C666.417 115.521 666.667 115.688 666.875 115.938C667.125 116.146 667.208 116.438 667.125 116.812H667.688C667.896 116.812 668 116.896 668 117.062L669 117.125C670.583 117.208 672.167 117.167 673.75 117C675.333 116.833 676.917 116.646 678.5 116.438C680.125 116.229 681.729 116.042 683.312 115.875C684.896 115.667 686.479 115.542 688.062 115.5C688.438 115.375 688.833 115.271 689.25 115.188C689.667 115.104 690.042 114.938 690.375 114.688H690.562C690.854 114.688 691.062 114.771 691.188 114.938C691.354 115.104 691.583 115.208 691.875 115.25C692.083 115.25 692.292 115.208 692.5 115.125C692.75 115.042 693 114.979 693.25 114.938C693.833 114.771 694.438 114.667 695.062 114.625C695.729 114.583 696.375 114.521 697 114.438C699.417 114.229 701.812 114.104 704.188 114.062C706.562 113.979 708.938 113.667 711.312 113.125C711.521 113.417 711.812 113.625 712.188 113.75C712.562 113.833 712.958 113.938 713.375 114.062C713.792 114.146 714.167 114.25 714.5 114.375C714.875 114.5 715.125 114.75 715.25 115.125ZM728.625 118.125C728.625 118.833 728.438 119.458 728.062 120C727.729 120.5 727.604 121.125 727.688 121.875C727.104 122.208 726.625 122.646 726.25 123.188C725.875 123.729 725.521 124.292 725.188 124.875C722.438 126.667 719.479 128.104 716.312 129.188C713.188 130.312 709.958 130.875 706.625 130.875C706.417 130.875 706.229 130.771 706.062 130.562C705.896 130.396 705.729 130.208 705.562 130C705.396 129.792 705.208 129.583 705 129.375C704.833 129.208 704.625 129.125 704.375 129.125C704.083 129.125 703.854 129.188 703.688 129.312C703.688 129.229 703.688 129.146 703.688 129.062C703.729 129.021 703.75 128.958 703.75 128.875C703.75 128.375 703.688 127.854 703.562 127.312C703.438 126.812 703.375 126.312 703.375 125.812C703.375 125.229 703.479 124.75 703.688 124.375H704.438C704.854 124.375 705.25 124.354 705.625 124.312C706.042 124.229 706.479 124.188 706.938 124.188C707.396 124.188 707.812 124.312 708.188 124.562C710.479 124.479 712.646 124.062 714.688 123.312C716.771 122.521 718.875 121.75 721 121C721.333 120.542 721.521 120.042 721.562 119.5C721.646 118.917 721.812 118.375 722.062 117.875C720.979 116.958 719.875 116.25 718.75 115.75C717.667 115.208 716.396 115.021 714.938 115.188C714.062 114.646 713.125 114.333 712.125 114.25C711.167 114.167 710.188 114.042 709.188 113.875C708.938 113.833 708.667 113.792 708.375 113.75C708.125 113.667 707.854 113.625 707.562 113.625C707.354 113.625 707.146 113.688 706.938 113.812C706.771 113.896 706.729 114.042 706.812 114.25C706.604 113.917 706.312 113.729 705.938 113.688C705.604 113.604 705.312 113.438 705.062 113.188C703.729 113.104 702.562 112.875 701.562 112.5C700.562 112.083 699.458 111.625 698.25 111.125C697.917 111 697.583 110.917 697.25 110.875C696.958 110.792 696.667 110.667 696.375 110.5C695.625 110.125 695.021 109.625 694.562 109C694.104 108.375 693.75 107.688 693.5 106.938C693.208 106.146 693 105.333 692.875 104.5C692.75 103.667 692.625 102.896 692.5 102.188C692.875 101.521 693.229 100.833 693.562 100.125C693.854 99.4167 694.104 98.6667 694.312 97.875C694.562 97.75 694.812 97.6458 695.062 97.5625C695.312 97.4792 695.583 97.375 695.875 97.25C695.833 97.1667 695.812 97.0625 695.812 96.9375C695.812 96.7292 695.875 96.5208 696 96.3125C696.167 96.1042 696.208 95.8958 696.125 95.6875C697.042 94.8542 697.917 94 698.75 93.125C699.625 92.2083 700.375 91.2083 701 90.125C701.625 89.9167 702.125 89.6042 702.5 89.1875C702.875 88.7708 703.25 88.3542 703.625 87.9375C704 87.4792 704.417 87.0833 704.875 86.75C705.333 86.375 705.917 86.1458 706.625 86.0625C706.792 85.7708 707.021 85.5417 707.312 85.375C707.604 85.1667 707.896 84.9792 708.188 84.8125C708.479 84.6458 708.75 84.4583 709 84.25C709.25 84.0417 709.438 83.75 709.562 83.375C710.229 83.375 710.833 83.25 711.375 83C711.958 82.75 712.521 82.4792 713.062 82.1875C713.604 81.8958 714.146 81.625 714.688 81.375C715.271 81.125 715.896 81 716.562 81C716.729 81 716.896 81.0208 717.062 81.0625C717.229 81.0625 717.417 81.0833 717.625 81.125C717.917 81.4167 718.104 81.7708 718.188 82.1875C718.312 82.5625 718.396 82.9792 718.438 83.4375C718.479 83.8958 718.5 84.3542 718.5 84.8125C718.542 85.2708 718.625 85.6875 718.75 86.0625C718.375 86.7708 717.958 87.4792 717.5 88.1875C717.083 88.8958 716.521 89.4375 715.812 89.8125H715.688C715.396 89.8542 715.125 89.7917 714.875 89.625C714.625 89.4583 714.333 89.375 714 89.375C713.792 89.375 713.625 89.4375 713.5 89.5625L713.188 89.875C713.104 89.9583 712.979 90.0417 712.812 90.125C712.688 90.2083 712.5 90.2083 712.25 90.125C711.667 90.3333 711.438 90.6875 711.562 91.1875C710.771 91.2708 710.104 91.5208 709.562 91.9375C709.021 92.3125 708.521 92.75 708.062 93.25C707.604 93.7083 707.146 94.1458 706.688 94.5625C706.229 94.9375 705.688 95.1458 705.062 95.1875C704.354 96.4375 703.479 97.5417 702.438 98.5C701.438 99.4583 700.604 100.542 699.938 101.75C700.062 102.083 700.146 102.438 700.188 102.812C700.229 103.188 700.292 103.583 700.375 104C700.75 104.5 701.188 104.938 701.688 105.312C702.229 105.688 702.75 106.062 703.25 106.438H703.438C704.271 106.438 705.042 106.604 705.75 106.938C706.458 107.229 707.208 107.375 708 107.375C708.417 107.375 708.771 107.292 709.062 107.125C710.146 107.375 711.208 107.583 712.25 107.75C713.333 107.917 714.417 108.042 715.5 108.125C716.042 108.208 716.583 108.25 717.125 108.25C717.708 108.25 718.25 108.312 718.75 108.438C719.208 108.562 719.667 108.729 720.125 108.938C720.583 109.104 721.042 109.292 721.5 109.5C722.458 109.917 723.354 110.375 724.188 110.875C725.062 111.375 725.833 111.979 726.5 112.688C727.167 113.354 727.688 114.146 728.062 115.062C728.438 115.938 728.625 116.958 728.625 118.125Z" fill="black"/>
<circle id="Ellipse 1" cx="113.5" cy="123.5" r="7.5" fill="black"/>
<circle id="Ellipse 2" cx="195.5" cy="123.5" r="7.5" fill="black"/>
<circle id="Ellipse 3" cx="156.5" cy="123.5" r="7.5" fill="black"/>
</g>
<g id="track">
<g id="dots">
<circle id="dot" cx="652" cy="62" r="5" fill="black"/>
<circle id="dot_2" cx="397" cy="43" r="5" fill="black"/>
<circle id="dot_3" cx="472" cy="159" r="5" fill="black"/>
<circle id="dot_4" cx="298" cy="62" r="5" fill="black"/>
<circle id="dot_5" cx="343" cy="43" r="5" fill="black"/>
<path id="dot_6" d="M221 187C221 189.761 218.761 192 216 192C213.239 192 211 189.761 211 187C211 184.239 213.239 182 216 182C218.761 182 221 184.239 221 187Z" fill="black"/>
<circle id="dot_7" cx="522" cy="179" r="5" fill="black"/>
<circle id="dot_8" cx="239" cy="154" r="5" fill="black"/>
<path id="dot_9" d="M589 144C589 146.761 586.761 149 584 149C581.239 149 579 146.761 579 144C579 141.239 581.239 139 584 139C586.761 139 589 141.239 589 144Z" fill="black"/>
<circle id="dot_10" cx="177" cy="197" r="5" fill="black"/>
</g>
<g id="train">
<path id="Vector" d="M140.846 193.533L138.458 189.365C138.127 188.787 137.317 188.408 136.415 188.408H128.195C129.259 188.408 130.248 188.03 130.813 187.409C134.875 182.941 134.875 177.266 130.813 172.797C130.248 172.175 129.259 171.798 128.195 171.798H125.443V166.56H126.862C127.739 166.56 128.45 166.07 128.45 165.466V164.267C128.45 163.663 127.739 163.173 126.862 163.173H115.176C114.299 163.173 113.588 163.663 113.588 164.267V165.466C113.588 166.07 114.299 166.56 115.176 166.56H116.595V171.798H107.168V162.514C107.168 161.678 106.184 161 104.971 161H73.1966C71.9835 161 71 161.678 71 162.514V164.833C71 165.669 71.9835 166.347 73.1966 166.347H75.6465V188.408H73.1966C71.9835 188.408 71 189.086 71 189.922V194.09C71 194.926 71.9835 195.603 73.1966 195.603H77.9702V195.603C77.9702 190.461 84.0404 186.278 91.502 186.278C98.9636 186.278 105.034 190.461 105.034 195.603V195.603H111.58C112.838 192.622 116.835 190.436 121.561 190.436C126.288 190.436 130.285 192.622 131.542 195.603H138.803C139.53 195.603 140.211 195.356 140.619 194.941C141.029 194.526 141.113 193.999 140.846 193.533ZM99.3225 180.446C99.3225 181.232 98.3975 181.87 97.2561 181.87H85.0142C83.873 181.87 82.9478 181.233 82.9478 180.446V173.325C82.9478 170.209 86.6132 167.683 91.135 167.683C95.6571 167.683 99.3225 170.209 99.3225 173.325V180.446V180.446Z" fill="black"/>
<path id="Vector_2" d="M121.561 192.775C117.841 192.775 114.8 194.776 114.577 197.301C113.143 197.301 102.502 197.301 101.086 197.301C101.288 196.758 101.396 196.189 101.396 195.603C101.396 191.838 96.9661 188.785 91.5017 188.785C86.0377 188.785 81.608 191.838 81.608 195.603C81.608 199.368 86.0377 202.421 91.5017 202.421C94.6627 202.421 97.4754 201.398 99.2866 199.808C105.047 199.808 109.29 199.808 115.341 199.808C116.504 201.36 118.852 202.421 121.561 202.421C125.427 202.421 128.56 200.262 128.56 197.598C128.56 194.935 125.426 192.775 121.561 192.775Z" fill="black"/>
</g>
</g>
<path id="plane" d="M697.275 47.8164L689.263 42.5646L681.031 47.6874C680.848 47.8248 680.588 47.9089 680.299 47.9089C679.75 47.9089 679.306 47.6033 679.306 47.2247V36.0397L669.309 29.4897C668.91 29.2289 668.898 28.7971 669.272 28.5223C669.398 28.4298 669.557 28.3681 669.724 28.3344L717.738 19.0253C718.267 18.9243 718.812 19.1346 718.963 19.4991C719.04 19.6842 718.995 19.8749 718.865 20.0291L698.845 47.6257C698.601 47.9622 698.007 48.0996 697.519 47.9313C697.425 47.9005 697.344 47.8612 697.275 47.8164ZM687.823 41.6224L681.292 37.3436V45.6882L687.823 41.6224ZM680.454 34.9069L711.508 21.6554L671.937 29.327L680.454 34.9069ZM715.561 21.532L681.935 35.8771L697.67 46.1901L715.561 21.532Z" fill="black"/>
</g>
</svg>
